<svg xmlns="http://www.w3.org/2000/svg" xmlns:xlink="http://www.w3.org/1999/xlink" fill="none" version="1.1" width="88" height="88" viewBox="0 0 88 88"><defs><clipPath id="master_svg0_6517_01579"><rect x="24" y="24" width="40" height="40" rx="0"/></clipPath><clipPath id="master_svg1_6517_01579/6517_01246"><rect x="27.333333253860474" y="24" width="33.33333206176758" height="40" rx="0"/></clipPath></defs><g><g clip-path="url(#master_svg0_6517_01579)"><g clip-path="url(#master_svg1_6517_01579/6517_01246)"><g><path d="M51.499642247390746,37.3333L58.16624224739075,37.3333C59.546942247390746,37.3333,60.66624224739075,38.452600000000004,60.66624224739075,39.8333L60.66624224739075,59C60.66624224739075,61.7614,58.427742247390746,64,55.66624224739075,64L32.33294224739075,64C29.571522247390746,64,27.332942247390747,61.7614,27.332942247390747,59L27.332942247390747,29C27.332942247390747,26.23858,29.571522247390746,24,32.33294224739075,24L44.83294224739075,24C46.21364224739075,24,47.33294224739075,25.11929,47.33294224739075,26.5L47.33294224739075,33.166669999999996C47.33294224739075,35.4679,49.198442247390744,37.3333,51.499642247390746,37.3333ZM51.50004224739075,35.6667C50.119242247390744,35.6667,49.00004224739075,34.547399999999996,49.00004224739075,33.166669999999996L49.00004224739075,26.5C48.99164224739074,25.59716,48.69364224739075,24.72084,48.15004224739074,24L60.66664224739075,36.5167C59.94584224739075,35.973,59.06954224739074,35.675,58.16664224739075,35.6667L51.50004224739075,35.6667Z" fill-rule="evenodd" fill="#0F87FF" fill-opacity="1"/></g><g><path d="M37.333333253860474,44.08333112353515L50.666633253860475,44.08333112353515L50.666633253860475,44.081664123535155Q50.75683325386048,44.081664123535155,50.845133253860475,44.06408212353516Q50.933533253860475,44.04650112353516,51.016833253860476,44.01201412353516Q51.100033253860474,43.977526123535156,51.17503325386048,43.92745912353516Q51.249933253860476,43.877391123535155,51.31363325386047,43.813667123535154Q51.377433253860474,43.749942123535156,51.42743325386047,43.67501112353516Q51.47753325386047,43.60007912353515,51.51203325386047,43.51681912353516Q51.546533253860474,43.43356012353516,51.564133253860476,43.34517212353516Q51.581633253860474,43.25678372353516,51.581633253860474,43.166664123535156Q51.581633253860474,43.076544523535155,51.564133253860476,42.988156123535155Q51.546533253860474,42.899768123535154,51.51203325386047,42.816509123535155Q51.47753325386047,42.73324912353516,51.42743325386047,42.658317123535156Q51.377433253860474,42.583386123535156,51.31363325386047,42.51966112353516Q51.249933253860476,42.45593712353516,51.17503325386048,42.405869123535155Q51.100033253860474,42.355802123535156,51.016833253860476,42.32131412353515Q50.933533253860475,42.286827123535154,50.845133253860475,42.269246123535154Q50.75683325386048,42.25166412353516,50.666633253860475,42.25166412353516L50.666633253860475,42.24999712353516L37.333333253860474,42.24999712353516L37.333333253860474,42.25166412353516Q37.24321365386047,42.25166412353516,37.15482525386047,42.269246123535154Q37.06643725386047,42.286827123535154,36.98317825386047,42.32131412353515Q36.89991825386048,42.355802123535156,36.82498625386047,42.405869123535155Q36.750055253860474,42.45593712353516,36.686330253860476,42.51966112353516Q36.622606253860475,42.583386123535156,36.57253825386047,42.658317123535156Q36.52247125386047,42.73324912353516,36.48798325386047,42.816509123535155Q36.45349625386047,42.899768123535154,36.43591525386047,42.988156123535155Q36.418333253860474,43.076544523535155,36.418333253860474,43.166664123535156Q36.418333253860474,43.25678372353516,36.43591525386047,43.34517212353516Q36.45349625386047,43.43356012353516,36.48798325386047,43.51681912353516Q36.52247125386047,43.60007912353515,36.57253825386047,43.67501112353516Q36.622606253860475,43.749942123535156,36.686330253860476,43.813667123535154Q36.750055253860474,43.877391123535155,36.82498625386047,43.92745912353516Q36.89991825386048,43.977526123535156,36.98317825386047,44.01201412353516Q37.06643725386047,44.04650112353516,37.15482525386047,44.06408212353516Q37.24321365386047,44.081664123535155,37.333333253860474,44.081664123535155L37.333333253860474,44.08333112353515ZM37.333333253860474,47.96659412353516L50.666633253860475,47.96659412353516L50.666633253860475,47.964924123535155Q50.75683325386048,47.964924123535155,50.845133253860475,47.94734412353516Q50.933533253860475,47.92976412353516,51.016833253860476,47.89527412353516Q51.100033253860474,47.860784123535154,51.17503325386048,47.810714123535156Q51.249933253860476,47.760654123535154,51.31363325386047,47.696924123535155Q51.377433253860474,47.63320412353516,51.42743325386047,47.558274123535156Q51.47753325386047,47.48333412353516,51.51203325386047,47.400074123535155Q51.546533253860474,47.316824123535156,51.564133253860476,47.22843412353516Q51.581633253860474,47.140044123535155,51.581633253860474,47.049924123535156Q51.581633253860474,46.95980412353516,51.564133253860476,46.87141412353515Q51.546533253860474,46.78302412353516,51.51203325386047,46.699764123535154Q51.47753325386047,46.61650412353516,51.42743325386047,46.541574123535156Q51.377433253860474,46.466644123535154,51.31363325386047,46.40292412353516Q51.249933253860476,46.33919412353516,51.17503325386048,46.28912412353515Q51.100033253860474,46.23906412353516,51.016833253860476,46.20457412353515Q50.933533253860475,46.170084123535155,50.845133253860475,46.15250412353516Q50.75683325386048,46.13492412353516,50.666633253860475,46.13492412353516L50.666633253860475,46.13325412353515L37.333333253860474,46.13325412353515L37.333333253860474,46.13492412353516Q37.24321365386047,46.13492412353516,37.15482525386047,46.15250412353516Q37.06643725386047,46.170084123535155,36.98317825386047,46.20457412353515Q36.89991825386048,46.23906412353516,36.82498625386047,46.289134123535156Q36.750055253860474,46.33919412353516,36.686330253860476,46.40292412353516Q36.622606253860475,46.466644123535154,36.57253825386047,46.541574123535156Q36.52247125386047,46.61650412353516,36.48798325386047,46.699764123535154Q36.45349625386047,46.78302412353516,36.43591525386047,46.87141412353515Q36.418333253860474,46.95980412353516,36.418333253860474,47.049924123535156Q36.418333253860474,47.140044123535155,36.43591525386047,47.22843412353516Q36.45349625386047,47.316824123535156,36.48798325386047,47.400074123535155Q36.52247125386047,47.48333412353516,36.57253825386047,47.558274123535156Q36.622606253860475,47.63320412353516,36.686330253860476,47.696924123535155Q36.750055253860474,47.760654123535154,36.82498625386047,47.810714123535156Q36.89991825386048,47.860784123535154,36.98317825386047,47.89527412353516Q37.06643725386047,47.92976412353516,37.15482525386047,47.94734412353516Q37.24321365386047,47.964924123535155,37.333333253860474,47.964924123535155L37.333333253860474,47.96659412353516ZM37.333333253860474,51.86653412353516L50.666633253860475,51.86653412353516L50.666633253860475,51.864864123535156Q50.75683325386048,51.864864123535156,50.845133253860475,51.847284123535154Q50.933533253860475,51.82970412353516,51.016833253860476,51.79521412353516Q51.100033253860474,51.76073412353516,51.17503325386048,51.71066412353515Q51.249933253860476,51.660594123535155,51.31363325386047,51.59687412353516Q51.377433253860474,51.53314412353515,51.42743325386047,51.45821412353516Q51.47753325386047,51.383284123535155,51.51203325386047,51.30002412353515Q51.546533253860474,51.21676412353516,51.564133253860476,51.12837412353515Q51.581633253860474,51.039984123535156,51.581633253860474,50.94986412353516Q51.581633253860474,50.85974412353516,51.564133253860476,50.771354123535154Q51.546533253860474,50.68297412353515,51.51203325386047,50.59971412353516Q51.47753325386047,50.516454123535155,51.42743325386047,50.44152412353516Q51.377433253860474,50.366584123535155,51.31363325386047,50.30286412353516Q51.249933253860476,50.239144123535155,51.17503325386048,50.18907412353516Q51.100033253860474,50.13900412353516,51.016833253860476,50.104514123535154Q50.933533253860475,50.07003412353516,50.845133253860475,50.05244412353515Q50.75683325386048,50.03486412353516,50.666633253860475,50.03486412353516L50.666633253860475,50.03320412353516L37.333333253860474,50.03320412353516L37.333333253860474,50.03486412353516Q37.24321365386047,50.03486412353516,37.15482525386047,50.05244412353515Q37.06643725386047,50.07003412353516,36.98317825386047,50.104514123535154Q36.89991825386048,50.13900412353516,36.82498625386047,50.18907412353516Q36.750055253860474,50.239144123535155,36.686330253860476,50.30286412353516Q36.622606253860475,50.366584123535155,36.57253825386047,50.44152412353516Q36.52247125386047,50.516454123535155,36.48798325386047,50.59971412353516Q36.45349625386047,50.68297412353515,36.43591525386047,50.771354123535154Q36.418333253860474,50.85974412353516,36.418333253860474,50.94986412353516Q36.418333253860474,51.039984123535156,36.43591525386047,51.12837412353515Q36.45349625386047,51.21676412353516,36.48798325386047,51.30002412353515Q36.52247125386047,51.383284123535155,36.57253825386047,51.45821412353516Q36.622606253860475,51.53314412353515,36.686330253860476,51.59687412353516Q36.750055253860474,51.660594123535155,36.82498625386047,51.71066412353515Q36.89991825386048,51.76073412353516,36.98317825386047,51.79521412353516Q37.06643725386047,51.82970412353516,37.15482525386047,51.847284123535154Q37.24321365386047,51.864864123535156,37.333333253860474,51.864864123535156L37.333333253860474,51.86653412353516ZM37.333333253860474,55.74996412353516L41.78333325386048,55.74996412353516L41.78333325386048,55.748364123535154Q41.873453253860475,55.748364123535154,41.96184325386047,55.73076412353515Q42.05022325386047,55.71316412353516,42.133483253860476,55.67866412353516Q42.21674325386047,55.644164123535155,42.29168325386048,55.59416412353516Q42.36661325386047,55.54406412353516,42.430333253860475,55.48036412353515Q42.494063253860475,55.41656412353515,42.54412325386048,55.34166412353515Q42.594193253860475,55.266764123535154,42.62868325386047,55.18346412353516Q42.66317325386047,55.100264123535155,42.68075325386047,55.011864123535155Q42.698333253860476,54.923464123535155,42.698333253860476,54.833364123535155Q42.698333253860476,54.74316412353515,42.68075325386047,54.654864123535155Q42.66317325386047,54.566464123535155,42.62868325386047,54.483164123535154Q42.594193253860475,54.39986412353515,42.54412325386048,54.32496412353515Q42.494063253860475,54.250064123535154,42.430333253860475,54.18636412353516Q42.36661325386047,54.122564123535156,42.29168325386048,54.07256412353516Q42.21674325386047,54.02246412353516,42.133483253860476,53.98796412353516Q42.050233253860476,53.953464123535156,41.96184325386047,53.935864123535154Q41.873453253860475,53.918364123535156,41.78333325386048,53.918364123535156L41.78333325386048,53.916664123535156L37.333333253860474,53.916664123535156L37.333333253860474,53.918364123535156Q37.24321365386047,53.918364123535156,37.15482525386047,53.935864123535154Q37.06643725386047,53.953464123535156,36.98317825386047,53.98796412353516Q36.89991825386048,54.02246412353516,36.82498625386047,54.07256412353516Q36.750055253860474,54.122564123535156,36.686330253860476,54.18636412353516Q36.622606253860475,54.250064123535154,36.57253825386047,54.32496412353515Q36.52247125386047,54.39986412353515,36.48798325386047,54.483164123535154Q36.45349625386047,54.566464123535155,36.43591525386047,54.654864123535155Q36.418333253860474,54.74316412353515,36.418333253860474,54.833364123535155Q36.418333253860474,54.923464123535155,36.43591525386047,55.011864123535155Q36.45349625386047,55.100264123535155,36.48798325386047,55.18346412353516Q36.52247125386047,55.266764123535154,36.57253825386047,55.34166412353515Q36.622606253860475,55.41656412353515,36.686330253860476,55.48036412353515Q36.750055253860474,55.54406412353516,36.82498625386047,55.59416412353516Q36.89991825386048,55.644164123535155,36.98317825386047,55.67866412353516Q37.06643725386047,55.71316412353516,37.15482525386047,55.73076412353515Q37.24321365386047,55.748364123535154,37.333333253860474,55.748364123535154L37.333333253860474,55.74996412353516Z" fill-rule="evenodd" fill="#FFFFFF" fill-opacity="1"/></g></g></g></g></svg>