<svg xmlns="http://www.w3.org/2000/svg" xmlns:xlink="http://www.w3.org/1999/xlink" fill="none" version="1.1" width="88" height="88" viewBox="0 0 88 88"><defs><clipPath id="master_svg0_6517_01581"><rect x="24" y="24" width="40" height="40" rx="0"/></clipPath></defs><g><g clip-path="url(#master_svg0_6517_01581)"><g><path d="M51.50003325386047,37.3333L58.166633253860475,37.3333C59.54733325386047,37.3333,60.666633253860475,38.452600000000004,60.666633253860475,39.8333L60.666633253860475,59C60.666633253860475,61.7614,58.42813325386047,64,55.666633253860475,64L32.333333253860474,64C29.571913253860473,64,27.333333253860474,61.7614,27.333333253860474,59L27.333333253860474,29C27.333333253860474,26.23858,29.571913253860473,24,32.333333253860474,24L44.833333253860474,24C46.21403325386048,24,47.333333253860474,25.11929,47.333333253860474,26.5L47.333333253860474,33.166669999999996C47.333333253860474,35.4679,49.19883325386047,37.3333,51.50003325386047,37.3333ZM51.50043325386048,35.6667C50.11963325386047,35.6667,49.00043325386048,34.547399999999996,49.00043325386048,33.166669999999996L49.00043325386048,26.5C48.99443325386048,25.59675,48.69623325386047,24.719713,48.15043325386047,24L60.667033253860474,36.5167C59.94623325386048,35.973,59.06993325386047,35.675,58.167033253860474,35.6667L51.50043325386048,35.6667Z" fill-rule="evenodd" fill="#FD4C4C" fill-opacity="1"/></g><g><path d="M42.88324875,40.66666603088379C41.86151875,40.66666603088379,41.03324875,41.49493803088379,41.03324875,42.51666603088379C41.20307875,44.03729603088379,41.69756875,45.50370603088379,42.48324875,46.81666603088379C41.93678875,48.66492603088379,41.24001875,50.46537603088379,40.39991875,52.199966030883786C38.93739875,52.664866030883786,37.53790875,53.308666030883785,36.23324975,54.11666603088379C35.89338475,54.47106603088379,35.70248191,54.94236603088379,35.699916522,55.43336603088379C35.67195325,56.46156603088379,36.48811675,57.31516603088379,37.51657875,57.33336603088379C38.00966875,57.341666030883786,38.48493875,57.14916603088379,38.83324875,56.79996603088379C39.66845875,55.65946603088379,40.40447875,54.44946603088379,41.03324875,53.18336603088379C42.65913875,52.51226603088379,44.32986875,51.95526603088379,46.03321875,51.51666603088379C47.28131875,52.53296603088379,48.82501875,53.11766603088379,50.43321875,53.18336603088379C51.45401875,53.181966030883785,52.28071875,52.354066030883786,52.28071875,51.33336603088379C52.28071875,50.312606030883785,51.45401875,49.48474603088379,50.43321875,49.48333603088379C49.02771875,49.57025603088379,47.64161875,49.85645603088379,46.31661875,50.333336030883785C45.23632875,49.32164603088379,44.32978875,48.13919603088379,43.63324875,46.833336030883785C44.17093875,45.48704603088379,44.52412875,44.07425603088379,44.683248750000004,42.63333603088379C44.74976875,41.58586203088379,43.93249875,40.69292223088379,42.88324875,40.66666603088379ZM42.88324875,41.78333603088379C43.29474875,41.77397603088379,43.63335875,42.10505603088379,43.63324875,42.51666603088379C43.52262875,43.43351603088379,43.30446875,44.33415603088379,42.98324875,45.19999603088379C42.56695875,44.35459603088379,42.28576875,43.44915603088379,42.14991875,42.51666603088379C42.140288749999996,42.10773603088379,42.47431875,41.77370603088379,42.88324875,41.78333603088379ZM43.19991875,48.11666603088379C43.75594875,48.99425603088379,44.404058750000004,49.80998603088379,45.13324875,50.54999603088379C44.03324875,50.84996603088379,42.94991875,51.24996603088379,41.89991875,51.64996603088379C42.39437875,50.49561603088379,42.82830875,49.31624603088379,43.19991875,48.11666603088379ZM50.48321875,50.48333603088379C50.89221875,50.47370603088379,51.22621875,50.80776603088379,51.21661875,51.216666030883786C51.22591875,51.62816603088379,50.89481875,51.96676603088379,50.48321875,51.966666030883786C49.43961875,51.89156603088379,48.42601875,51.58406603088379,47.51661875,51.06666603088379C48.47891875,50.75536603088379,49.47471875,50.55957603088379,50.48321875,50.48333603088379ZM39.43324875,53.81666603088379C39.01480875,54.59026603088379,38.547188750000004,55.33626603088379,38.03324875,56.04996603088379C37.89032875,56.17416603088379,37.70576875,56.23956603088379,37.51657875,56.233366030883786C37.10764875,56.24296603088379,36.77361875,55.90896603088379,36.78324875,55.49996603088379C36.78801875,55.31266603088379,36.85221875,55.13176603088379,36.96657875,54.983366030883786C37.74605875,54.50536603088379,38.57262875,54.10886603088379,39.43324875,53.79996603088379L39.43324875,53.81666603088379Z" fill="#FFFFFF" fill-opacity="1"/></g></g></g></svg>