<svg xmlns="http://www.w3.org/2000/svg" xmlns:xlink="http://www.w3.org/1999/xlink" fill="none" version="1.1" width="88" height="88" viewBox="0 0 88 88"><defs><clipPath id="master_svg0_6517_01578"><rect x="24" y="24" width="40" height="40" rx="0"/></clipPath><clipPath id="master_svg1_6517_01578/6517_01240"><rect x="27.333333253860474" y="24" width="33.33333206176758" height="40" rx="0"/></clipPath></defs><g><g clip-path="url(#master_svg0_6517_01578)"><g clip-path="url(#master_svg1_6517_01578/6517_01240)"><g><path d="M51.499642247390746,37.3333L58.16624224739075,37.3333C59.546942247390746,37.3333,60.66624224739075,38.452600000000004,60.66624224739075,39.8333L60.66624224739075,59C60.66624224739075,61.7614,58.427742247390746,64,55.66624224739075,64L32.33294224739075,64C29.571522247390746,64,27.332942247390747,61.7614,27.332942247390747,59L27.332942247390747,29C27.332942247390747,26.23858,29.571522247390746,24,32.33294224739075,24L44.83294224739075,24C46.21364224739075,24,47.33294224739075,25.11929,47.33294224739075,26.5L47.33294224739075,33.166669999999996C47.33294224739075,35.4679,49.198442247390744,37.3333,51.499642247390746,37.3333ZM51.50004224739075,35.6667C50.119242247390744,35.6667,49.00004224739075,34.547399999999996,49.00004224739075,33.166669999999996L49.00004224739075,26.5C48.99164224739074,25.59716,48.69364224739075,24.72084,48.15004224739074,24L60.66664224739075,36.5167C59.94584224739075,35.973,59.06954224739074,35.675,58.16664224739075,35.6667L51.50004224739075,35.6667Z" fill-rule="evenodd" fill="#454F5B" fill-opacity="1"/></g><g><path d="M35.66666626930237,46.21666923706055L35.66666626930237,53.199999237060545L37.333336269302364,53.199999237060545L37.333336269302364,46.21666923706055L39.833336269302364,46.21666923706055L39.833336269302364,44.79999923706055L33.16666626930237,44.79999923706055L33.16666626930237,46.21666923706055L35.66666626930237,46.21666923706055ZM42.94983626930237,48.816669237060545L40.08316626930237,53.199999237060545L42.11650626930237,53.199999237060545L43.999866269302366,50.29999923706055L45.84986626930237,53.199999237060545L47.883166269302365,53.199999237060545L45.01646626930237,48.88332923706055L47.633166269302365,44.79999923706055L45.66646626930237,44.79999923706055L43.999866269302366,47.49999923706055L42.33316626930237,44.79999923706055L40.349836269302365,44.79999923706055L42.94983626930237,48.816669237060545ZM50.66666626930237,46.21666923706055L50.66666626930237,53.199999237060545L52.33336626930237,53.199999237060545L52.33336626930237,46.21666923706055L54.83336626930237,46.21666923706055L54.83336626930237,44.79999923706055L48.16666626930237,44.79999923706055L48.16666626930237,46.21666923706055L50.66666626930237,46.21666923706055Z" fill-rule="evenodd" fill="#FFFFFF" fill-opacity="1"/></g></g></g></g></svg>