<svg xmlns="http://www.w3.org/2000/svg" xmlns:xlink="http://www.w3.org/1999/xlink" fill="none" version="1.1" width="88" height="88" viewBox="0 0 88 88"><defs><clipPath id="master_svg0_6517_01580"><rect x="24" y="24" width="40" height="40" rx="0"/></clipPath><clipPath id="master_svg1_6517_01580/6517_01250"><rect x="27.333333253860474" y="24" width="33.33333206176758" height="40" rx="0"/></clipPath></defs><g><g clip-path="url(#master_svg0_6517_01580)"><g clip-path="url(#master_svg1_6517_01580/6517_01250)"><g><path d="M51.499642247390746,37.3333L58.16624224739075,37.3333C59.546942247390746,37.3333,60.66624224739075,38.452600000000004,60.66624224739075,39.8333L60.66624224739075,59C60.66624224739075,61.7614,58.427742247390746,64,55.66624224739075,64L32.33294224739075,64C29.571522247390746,64,27.332942247390747,61.7614,27.332942247390747,59L27.332942247390747,29C27.332942247390747,26.23858,29.571522247390746,24,32.33294224739075,24L44.83294224739075,24C46.21364224739075,24,47.33294224739075,25.11929,47.33294224739075,26.5L47.33294224739075,33.166669999999996C47.33294224739075,35.4679,49.198442247390744,37.3333,51.499642247390746,37.3333ZM51.50004224739075,35.6667C50.119242247390744,35.6667,49.00004224739075,34.547399999999996,49.00004224739075,33.166669999999996L49.00004224739075,26.5C48.99164224739074,25.59716,48.69364224739075,24.72084,48.15004224739074,24L60.66664224739075,36.5167C59.94584224739075,35.973,59.06954224739074,35.675,58.16664224739075,35.6667L51.50004224739075,35.6667Z" fill-rule="evenodd" fill="#3A0000" fill-opacity="1"/></g><g><path d="M48.132715672683716,55.466632824707034L45.34934567268372,55.466632824707034L44.232685672683715,52.56663282470703L39.149345672683715,52.56663282470703L38.09934567268372,55.466632824707034L35.366015672683716,55.466632824707034L40.366015672683716,42.73332482470703L43.049345672683714,42.73332482470703L48.132715672683716,55.466632824707034ZM43.41601567268371,50.46665282470703L41.649345672683715,45.66666282470703L39.982685672683715,50.38332282470703L43.41601567268371,50.46665282470703ZM49.36671567268372,43.86666282470703C49.36671567268372,43.13028682470703,49.963615672683716,42.53333282470703,50.70001567268372,42.53333282470703C51.436415672683715,42.53333282470703,52.03331567268371,43.13028682470703,52.03331567268371,43.86666282470703C52.03331567268371,44.60304282470703,51.436415672683715,45.20000282470703,50.70001567268372,45.20000282470703C49.963615672683716,45.20000282470703,49.36671567268372,44.60304282470703,49.36671567268372,43.86666282470703ZM49.483315672683716,55.53333282470703L49.483315672683716,46.25000282470703L51.91661567268372,46.25000282470703L51.91661567268372,55.466632824707034L49.483315672683716,55.53333282470703Z" fill="#FF9800" fill-opacity="1"/></g></g></g></g></svg>