<svg xmlns="http://www.w3.org/2000/svg" xmlns:xlink="http://www.w3.org/1999/xlink" fill="none" version="1.1" width="88" height="88" viewBox="0 0 88 88"><defs><clipPath id="master_svg0_6517_01526"><rect x="24" y="24" width="40" height="40" rx="0"/></clipPath><clipPath id="master_svg1_6517_01526/6376_7842"><rect x="27.333333253860474" y="24" width="33.33333206176758" height="40" rx="0"/></clipPath></defs><g><g clip-path="url(#master_svg0_6517_01526)"><g clip-path="url(#master_svg1_6517_01526/6376_7842)"><g><path d="M51.499642247390746,37.3333L58.16624224739075,37.3333C59.546942247390746,37.3333,60.66624224739075,38.452600000000004,60.66624224739075,39.8333L60.66624224739075,59C60.66624224739075,61.7614,58.427742247390746,64,55.66624224739075,64L32.33294224739075,64C29.571522247390746,64,27.332942247390747,61.7614,27.332942247390747,59L27.332942247390747,29C27.332942247390747,26.23858,29.571522247390746,24,32.33294224739075,24L44.83294224739075,24C46.21364224739075,24,47.33294224739075,25.11929,47.33294224739075,26.5L47.33294224739075,33.166669999999996C47.33294224739075,35.4679,49.198442247390744,37.3333,51.499642247390746,37.3333ZM51.50004224739075,35.6667C50.119242247390744,35.6667,49.00004224739075,34.547399999999996,49.00004224739075,33.166669999999996L49.00004224739075,26.5C48.99164224739074,25.59716,48.69364224739075,24.72084,48.15004224739074,24L60.66664224739075,36.5167C59.94584224739075,35.973,59.06954224739074,35.675,58.16664224739075,35.6667L51.50004224739075,35.6667Z" fill-rule="evenodd" fill="#7B1DF5" fill-opacity="1"/></g><g><path d="M49.24997274971008,42.333333073852536L49.24997274971008,52.43336007385254C49.251572749710085,52.72776007385254,49.144772749710086,53.01246007385254,48.949972749710085,53.23336007385254C48.735072749710085,53.47496007385254,48.466872749710085,53.66326007385254,48.16667274971008,53.783360073852535C47.86857274971008,53.90046007385254,47.562172749710086,53.99516007385254,47.24997274971008,54.06666007385254C46.70097274971008,54.18726007385254,46.132372749710086,54.18726007385254,45.58337274971008,54.06666007385254C45.26631274971008,53.99286007385254,44.95452274971008,53.89826007385254,44.64999274971008,53.783360073852535C44.354542749710085,53.66316007385254,44.09179274971008,53.47466007385254,43.883332749710085,53.23336007385254C43.41643274971008,52.77586007385254,43.41643274971008,52.02416007385254,43.883332749710085,51.56666007385254C44.09179274971008,51.32529007385254,44.354542749710085,51.13679007385254,44.64999274971008,51.016660073852535C44.94920274971008,50.88671007385254,45.26237274971008,50.79164007385254,45.58337274971008,50.73333007385254C46.454672749710085,50.54053007385254,47.36467274971008,50.62803007385254,48.18337274971008,50.98333007385254L48.18337274971008,46.15000007385254L41.18333274971008,48.38333007385254L41.18333274971008,54.766660073852535C41.18704274971008,55.06456007385254,41.07328274971008,55.35196007385254,40.866672749710084,55.56666007385254C40.658202749710085,55.80806007385254,40.39545274971008,55.996560073852535,40.100002749710086,56.11666007385254C39.800792749710084,56.24666007385254,39.487622749710084,56.34166007385254,39.16667274971008,56.39996007385254C38.617662749710085,56.52066007385254,38.04901274971008,56.52066007385254,37.500002749710085,56.39996007385254C37.18387274971008,56.34396007385254,36.875942749710084,56.24876007385254,36.58333274971008,56.11666007385254C36.235142749710086,56.01616007385254,35.919184749710084,55.82656007385254,35.66666674971008,55.56666007385254C35.22640874971008,55.09836007385254,35.22640874971008,54.36836007385254,35.66666674971008,53.89996007385254C35.881553749710086,53.658360073852535,36.149742749710086,53.47006007385254,36.45000274971008,53.34996007385254C36.74807274971008,53.232860073852535,37.05448274971008,53.13816007385254,37.36666274971008,53.06666007385254C38.243532749710084,52.87366007385254,39.158872749710085,52.96116007385254,39.98333274971009,53.31666007385254L39.98333274971009,44.666670073852536C39.979472749710084,44.485750073852536,40.03836274971008,44.30908007385254,40.15000274971008,44.166670073852536C40.275232749710085,43.99875007385254,40.460202749710085,43.88539007385254,40.666662749710085,43.85000007385254L48.16667274971008,41.53333187085254L48.41667274971008,41.53333187085254C48.647972749710085,41.52742068385254,48.87137274971008,41.61798477385254,49.03337274971008,41.78333107385254C49.16907274971008,41.93483707385254,49.24587274971008,42.12998107385254,49.24997274971008,42.333333073852536Z" fill="#FFFFFF" fill-opacity="1"/></g></g></g></g></svg>