<svg xmlns="http://www.w3.org/2000/svg" xmlns:xlink="http://www.w3.org/1999/xlink" fill="none" version="1.1" width="88" height="88" viewBox="0 0 88 88"><defs><clipPath id="master_svg0_6517_01353"><rect x="24" y="24" width="40" height="40" rx="0"/></clipPath><clipPath id="master_svg1_6517_01353/6517_01157"><rect x="27.333333253860474" y="24" width="33.33333206176758" height="40" rx="0"/></clipPath></defs><g><g clip-path="url(#master_svg0_6517_01353)"><g clip-path="url(#master_svg1_6517_01353/6517_01157)"><g><path d="M51.499642247390746,37.3333L58.16624224739075,37.3333C59.546942247390746,37.3333,60.66624224739075,38.452600000000004,60.66624224739075,39.8333L60.66624224739075,59C60.66624224739075,61.7614,58.427742247390746,64,55.66624224739075,64L32.33294224739075,64C29.571522247390746,64,27.332942247390747,61.7614,27.332942247390747,59L27.332942247390747,29C27.332942247390747,26.23858,29.571522247390746,24,32.33294224739075,24L44.83294224739075,24C46.21364224739075,24,47.33294224739075,25.11929,47.33294224739075,26.5L47.33294224739075,33.166669999999996C47.33294224739075,35.4679,49.198442247390744,37.3333,51.499642247390746,37.3333ZM51.50004224739075,35.6667C50.119242247390744,35.6667,49.00004224739075,34.547399999999996,49.00004224739075,33.166669999999996L49.00004224739075,26.5C48.99164224739074,25.59716,48.69364224739075,24.72084,48.15004224739074,24L60.66664224739075,36.5167C59.94584224739075,35.973,59.06954224739074,35.675,58.16664224739075,35.6667L51.50004224739075,35.6667Z" fill-rule="evenodd" fill="#08C479" fill-opacity="1"/></g><g><path d="M37.333462953567505,44.08333112353515L39.550132953567505,44.08333112353515L39.550132953567505,44.081664123535155Q39.640252953567504,44.081664123535155,39.728632953567505,44.06408212353516Q39.8170229535675,44.04650112353516,39.900282953567505,44.01201412353516Q39.98354295356751,43.977526123535156,40.0584729535675,43.92745912353516Q40.133402953567504,43.877391123535155,40.197132953567504,43.813667123535154Q40.26085295356751,43.749942123535156,40.310922953567506,43.67501112353516Q40.360992953567504,43.60007912353515,40.3954829535675,43.51681912353516Q40.429962953567504,43.43356012353516,40.447542953567506,43.34517212353516Q40.465132953567505,43.25678372353516,40.465132953567505,43.166664123535156Q40.465132953567505,43.076544523535155,40.447542953567506,42.988156123535155Q40.429962953567504,42.899768123535154,40.3954829535675,42.816509123535155Q40.360992953567504,42.73324912353516,40.310922953567506,42.658317123535156Q40.26085295356751,42.583386123535156,40.197132953567504,42.51966112353516Q40.133402953567504,42.45593712353516,40.0584729535675,42.405869123535155Q39.98354295356751,42.355802123535156,39.900282953567505,42.32131412353515Q39.8170229535675,42.286827123535154,39.728632953567505,42.269246123535154Q39.640252953567504,42.25166412353516,39.550132953567505,42.25166412353516L39.550132953567505,42.24999712353516L37.333462953567505,42.24999712353516L37.333462953567505,42.25166412353516Q37.243343353567504,42.25166412353516,37.154954953567504,42.269246123535154Q37.0665669535675,42.286827123535154,36.983307953567504,42.32131412353515Q36.90004795356751,42.355802123535156,36.825115953567504,42.405869123535155Q36.750184953567505,42.45593712353516,36.68645995356751,42.51966112353516Q36.622735953567506,42.583386123535156,36.5726679535675,42.658317123535156Q36.522600953567505,42.73324912353516,36.4881129535675,42.816509123535155Q36.4536259535675,42.899768123535154,36.4360449535675,42.988156123535155Q36.418462953567506,43.076544523535155,36.418462953567506,43.166664123535156Q36.418462953567506,43.25678372353516,36.4360449535675,43.34517212353516Q36.4536259535675,43.43356012353516,36.4881129535675,43.51681912353516Q36.522600953567505,43.60007912353515,36.5726679535675,43.67501112353516Q36.622735953567506,43.749942123535156,36.68645995356751,43.813667123535154Q36.750184953567505,43.877391123535155,36.825115953567504,43.92745912353516Q36.90004795356751,43.977526123535156,36.983307953567504,44.01201412353516Q37.0665669535675,44.04650112353516,37.154954953567504,44.06408212353516Q37.243343353567504,44.081664123535155,37.333462953567505,44.081664123535155L37.333462953567505,44.08333112353515ZM42.88359295356751,44.08333112353515L45.1169229535675,44.08333112353515L45.1169229535675,44.081664123535155Q45.2070429535675,44.081664123535155,45.295432953567506,44.06408212353516Q45.3838229535675,44.04650112353516,45.467082953567505,44.01201412353516Q45.55034295356751,43.977526123535156,45.6252729535675,43.92745912353516Q45.700202953567505,43.877391123535155,45.763932953567505,43.813667123535154Q45.82765295356751,43.749942123535156,45.877722953567506,43.67501112353516Q45.9277829535675,43.60007912353515,45.962272953567506,43.51681912353516Q45.996762953567504,43.43356012353516,46.01434295356751,43.34517212353516Q46.0319229535675,43.25678372353516,46.0319229535675,43.166664123535156Q46.0319229535675,43.076544523535155,46.01434295356751,42.988156123535155Q45.996762953567504,42.899768123535154,45.962272953567506,42.816509123535155Q45.9277829535675,42.73324912353516,45.877722953567506,42.658317123535156Q45.82765295356751,42.583386123535156,45.763932953567505,42.51966112353516Q45.700202953567505,42.45593712353516,45.6252729535675,42.405869123535155Q45.55034295356751,42.355802123535156,45.467082953567505,42.32131412353515Q45.3838229535675,42.286827123535154,45.295432953567506,42.269246123535154Q45.2070429535675,42.25166412353516,45.1169229535675,42.25166412353516L45.1169229535675,42.24999712353516L42.88359295356751,42.24999712353516L42.88359295356751,42.25166412353516Q42.7934729535675,42.25166412353516,42.705082953567505,42.269246123535154Q42.61669295356751,42.286827123535154,42.533432953567505,42.32131412353515Q42.4501729535675,42.355802123535156,42.37524295356751,42.405869123535155Q42.300312953567506,42.45593712353516,42.2365929535675,42.51966112353516Q42.1728629535675,42.583386123535156,42.12280295356751,42.658317123535156Q42.0727329535675,42.73324912353516,42.038242953567504,42.816509123535155Q42.003752953567506,42.899768123535154,41.986172953567504,42.988156123535155Q41.96859295356751,43.076544523535155,41.96859295356751,43.166664123535156Q41.96859295356751,43.25678372353516,41.986172953567504,43.34517212353516Q42.003752953567506,43.43356012353516,42.038242953567504,43.51681912353516Q42.0727329535675,43.60007912353515,42.122792953567505,43.67501112353516Q42.1728629535675,43.749942123535156,42.2365929535675,43.813667123535154Q42.300312953567506,43.877391123535155,42.37524295356751,43.92745912353516Q42.4501729535675,43.977526123535156,42.533432953567505,44.01201412353516Q42.61669295356751,44.04650112353516,42.705082953567505,44.06408212353516Q42.7934729535675,44.081664123535155,42.88359295356751,44.081664123535155L42.88359295356751,44.08333112353515ZM48.44996295356751,44.08333112353515L50.6666629535675,44.08333112353515L50.6666629535675,44.081664123535155Q50.7567629535675,44.081664123535155,50.8451629535675,44.06408212353516Q50.9335629535675,44.04650112353516,51.016862953567504,44.01201412353516Q51.1000629535675,43.977526123535156,51.1749629535675,43.92745912353516Q51.249962953567504,43.877391123535155,51.3136629535675,43.813667123535154Q51.377362953567506,43.749942123535156,51.427462953567506,43.67501112353516Q51.47756295356751,43.60007912353515,51.51206295356751,43.51681912353516Q51.546462953567506,43.43356012353516,51.56406295356751,43.34517212353516Q51.5816629535675,43.25678372353516,51.5816629535675,43.166664123535156Q51.5816629535675,43.076544523535155,51.56406295356751,42.988156123535155Q51.546462953567506,42.899768123535154,51.51206295356751,42.816509123535155Q51.47756295356751,42.73324912353516,51.427462953567506,42.658317123535156Q51.377362953567506,42.583386123535156,51.3136629535675,42.51966112353516Q51.249962953567504,42.45593712353516,51.1749629535675,42.405869123535155Q51.1000629535675,42.355802123535156,51.016862953567504,42.32131412353515Q50.9335629535675,42.286827123535154,50.8451629535675,42.269246123535154Q50.7567629535675,42.25166412353516,50.6666629535675,42.25166412353516L50.6666629535675,42.24999712353516L48.44996295356751,42.24999712353516L48.44996295356751,42.25166412353516Q48.35986295356751,42.25166412353516,48.27146295356751,42.269246123535154Q48.18306295356751,42.286827123535154,48.09986295356751,42.32131412353515Q48.0165629535675,42.355802123535156,47.9416629535675,42.405869123535155Q47.8667629535675,42.45593712353516,47.8029629535675,42.51966112353516Q47.739262953567504,42.583386123535156,47.689162953567504,42.658317123535156Q47.63916295356751,42.73324912353516,47.604662953567505,42.816509123535155Q47.570162953567504,42.899768123535154,47.5525629535675,42.988156123535155Q47.5349629535675,43.076544523535155,47.5349629535675,43.166664123535156Q47.5349629535675,43.25678372353516,47.5525629535675,43.34517212353516Q47.570162953567504,43.43356012353516,47.604662953567505,43.51681912353516Q47.63916295356751,43.60007912353515,47.689162953567504,43.67501112353516Q47.739262953567504,43.749942123535156,47.8029629535675,43.813667123535154Q47.8667629535675,43.877391123535155,47.9416629535675,43.92745912353516Q48.0165629535675,43.977526123535156,48.09986295356751,44.01201412353516Q48.18306295356751,44.04650112353516,48.27146295356751,44.06408212353516Q48.35986295356751,44.081664123535155,48.44996295356751,44.081664123535155L48.44996295356751,44.08333112353515ZM37.333462953567505,47.96659412353516L39.550132953567505,47.96659412353516L39.550132953567505,47.964924123535155Q39.640252953567504,47.964924123535155,39.728632953567505,47.94734412353516Q39.8170229535675,47.92976412353516,39.900282953567505,47.89527412353516Q39.98354295356751,47.860784123535154,40.0584729535675,47.810714123535156Q40.133402953567504,47.760654123535154,40.197132953567504,47.696924123535155Q40.26085295356751,47.63320412353516,40.310922953567506,47.558274123535156Q40.360992953567504,47.48333412353516,40.3954829535675,47.400074123535155Q40.429962953567504,47.316824123535156,40.447542953567506,47.22843412353516Q40.465132953567505,47.140044123535155,40.465132953567505,47.049924123535156Q40.465132953567505,46.95980412353516,40.447542953567506,46.87141412353515Q40.429962953567504,46.78302412353516,40.3954829535675,46.699764123535154Q40.360992953567504,46.61650412353516,40.310922953567506,46.541574123535156Q40.26085295356751,46.466644123535154,40.197132953567504,46.40292412353516Q40.133402953567504,46.33919412353516,40.0584729535675,46.28912412353515Q39.98354295356751,46.23906412353516,39.900282953567505,46.20457412353515Q39.8170229535675,46.170084123535155,39.728632953567505,46.15250412353516Q39.640252953567504,46.13492412353516,39.550132953567505,46.13492412353516L39.550132953567505,46.13325412353515L37.333462953567505,46.13325412353515L37.333462953567505,46.13492412353516Q37.243343353567504,46.13492412353516,37.154954953567504,46.15250412353516Q37.0665669535675,46.170084123535155,36.983307953567504,46.20457412353515Q36.90004795356751,46.23906412353516,36.825115953567504,46.289134123535156Q36.750184953567505,46.33919412353516,36.68645995356751,46.40292412353516Q36.622735953567506,46.466644123535154,36.5726679535675,46.541574123535156Q36.522600953567505,46.61650412353516,36.4881129535675,46.699764123535154Q36.4536259535675,46.78302412353516,36.4360449535675,46.87141412353515Q36.418462953567506,46.95980412353516,36.418462953567506,47.049924123535156Q36.418462953567506,47.140044123535155,36.4360449535675,47.22843412353516Q36.4536259535675,47.316824123535156,36.4881129535675,47.400074123535155Q36.522600953567505,47.48333412353516,36.5726679535675,47.558274123535156Q36.622735953567506,47.63320412353516,36.68645995356751,47.696924123535155Q36.750184953567505,47.760654123535154,36.825115953567504,47.810714123535156Q36.90004795356751,47.860784123535154,36.983307953567504,47.89527412353516Q37.0665669535675,47.92976412353516,37.154954953567504,47.94734412353516Q37.243343353567504,47.964924123535155,37.333462953567505,47.964924123535155L37.333462953567505,47.96659412353516ZM42.88359295356751,47.96659412353516L45.1169229535675,47.96659412353516L45.1169229535675,47.964924123535155Q45.2070429535675,47.964924123535155,45.295432953567506,47.94734412353516Q45.3838229535675,47.92976412353516,45.467082953567505,47.89527412353516Q45.55034295356751,47.860784123535154,45.6252729535675,47.810714123535156Q45.700202953567505,47.760654123535154,45.763932953567505,47.696924123535155Q45.82765295356751,47.63320412353516,45.877722953567506,47.558274123535156Q45.9277829535675,47.48333412353516,45.962272953567506,47.400074123535155Q45.996762953567504,47.316824123535156,46.01434295356751,47.22843412353516Q46.0319229535675,47.140044123535155,46.0319229535675,47.049924123535156Q46.0319229535675,46.95980412353516,46.01434295356751,46.87141412353515Q45.996762953567504,46.78302412353516,45.962272953567506,46.699764123535154Q45.9277829535675,46.61650412353516,45.877722953567506,46.541574123535156Q45.82765295356751,46.466644123535154,45.763932953567505,46.40292412353516Q45.700202953567505,46.33919412353516,45.6252729535675,46.28912412353515Q45.55034295356751,46.23906412353516,45.467082953567505,46.20457412353515Q45.3838229535675,46.170084123535155,45.295432953567506,46.15250412353516Q45.2070429535675,46.13492412353516,45.1169229535675,46.13492412353516L45.1169229535675,46.13325412353515L42.88359295356751,46.13325412353515L42.88359295356751,46.13492412353516Q42.7934729535675,46.13492412353516,42.705082953567505,46.15250412353516Q42.61669295356751,46.170084123535155,42.533432953567505,46.20457412353515Q42.4501729535675,46.23906412353516,42.37524295356751,46.289134123535156Q42.300312953567506,46.33919412353516,42.2365929535675,46.40292412353516Q42.1728629535675,46.466644123535154,42.12280295356751,46.541574123535156Q42.0727329535675,46.61650412353516,42.038242953567504,46.699764123535154Q42.003752953567506,46.78302412353516,41.986172953567504,46.87141412353515Q41.96859295356751,46.95980412353516,41.96859295356751,47.049924123535156Q41.96859295356751,47.140044123535155,41.986172953567504,47.22843412353516Q42.003752953567506,47.316824123535156,42.038242953567504,47.400074123535155Q42.0727329535675,47.48333412353516,42.122792953567505,47.558274123535156Q42.1728629535675,47.63320412353516,42.2365929535675,47.696924123535155Q42.300312953567506,47.760654123535154,42.37524295356751,47.810714123535156Q42.4501729535675,47.860784123535154,42.533432953567505,47.89527412353516Q42.61669295356751,47.92976412353516,42.705082953567505,47.94734412353516Q42.7934729535675,47.964924123535155,42.88359295356751,47.964924123535155L42.88359295356751,47.96659412353516ZM48.44996295356751,47.96659412353516L50.6666629535675,47.96659412353516L50.6666629535675,47.964924123535155Q50.7567629535675,47.964924123535155,50.8451629535675,47.94734412353516Q50.9335629535675,47.92976412353516,51.016862953567504,47.89527412353516Q51.1000629535675,47.860784123535154,51.1749629535675,47.810714123535156Q51.249962953567504,47.760654123535154,51.3136629535675,47.696924123535155Q51.377362953567506,47.63320412353516,51.427462953567506,47.558274123535156Q51.47756295356751,47.48333412353516,51.51206295356751,47.400074123535155Q51.546462953567506,47.316824123535156,51.56406295356751,47.22843412353516Q51.5816629535675,47.140044123535155,51.5816629535675,47.049924123535156Q51.5816629535675,46.95980412353516,51.56406295356751,46.87141412353515Q51.546462953567506,46.78302412353516,51.51206295356751,46.699764123535154Q51.47756295356751,46.61650412353516,51.427462953567506,46.541574123535156Q51.377362953567506,46.466644123535154,51.3136629535675,46.40292412353516Q51.249962953567504,46.33919412353516,51.1749629535675,46.28912412353515Q51.1000629535675,46.23906412353516,51.016862953567504,46.20457412353515Q50.9335629535675,46.170084123535155,50.8451629535675,46.15250412353516Q50.7567629535675,46.13492412353516,50.6666629535675,46.13492412353516L50.6666629535675,46.13325412353515L48.44996295356751,46.13325412353515L48.44996295356751,46.13492412353516Q48.35986295356751,46.13492412353516,48.27146295356751,46.15250412353516Q48.18306295356751,46.170084123535155,48.09986295356751,46.20457412353515Q48.0165629535675,46.23906412353516,47.9416629535675,46.289134123535156Q47.8667629535675,46.33919412353516,47.8029629535675,46.40292412353516Q47.739262953567504,46.466644123535154,47.689162953567504,46.541574123535156Q47.63916295356751,46.61650412353516,47.604662953567505,46.699764123535154Q47.570162953567504,46.78302412353516,47.5525629535675,46.87141412353515Q47.5349629535675,46.95980412353516,47.5349629535675,47.049924123535156Q47.5349629535675,47.140044123535155,47.5525629535675,47.22843412353516Q47.570162953567504,47.316824123535156,47.604662953567505,47.400074123535155Q47.63916295356751,47.48333412353516,47.689162953567504,47.558274123535156Q47.739262953567504,47.63320412353516,47.8029629535675,47.696924123535155Q47.8667629535675,47.760654123535154,47.9416629535675,47.810714123535156Q48.0165629535675,47.860784123535154,48.09986295356751,47.89527412353516Q48.18306295356751,47.92976412353516,48.27146295356751,47.94734412353516Q48.35986295356751,47.964924123535155,48.44996295356751,47.964924123535155L48.44996295356751,47.96659412353516ZM37.333462953567505,51.86653412353516L39.550132953567505,51.86653412353516L39.550132953567505,51.864864123535156Q39.640252953567504,51.864864123535156,39.728632953567505,51.847284123535154Q39.8170229535675,51.82970412353516,39.900282953567505,51.79521412353516Q39.98354295356751,51.76073412353516,40.0584729535675,51.71066412353515Q40.133402953567504,51.660594123535155,40.197132953567504,51.59687412353516Q40.26085295356751,51.53314412353515,40.310922953567506,51.45821412353516Q40.360992953567504,51.383284123535155,40.3954829535675,51.30002412353515Q40.429962953567504,51.21676412353516,40.447542953567506,51.12837412353515Q40.465132953567505,51.039984123535156,40.465132953567505,50.94986412353516Q40.465132953567505,50.85974412353516,40.447542953567506,50.771354123535154Q40.429962953567504,50.68297412353515,40.3954829535675,50.59971412353516Q40.360992953567504,50.516454123535155,40.310922953567506,50.44152412353516Q40.26085295356751,50.366584123535155,40.197132953567504,50.30286412353516Q40.133402953567504,50.239144123535155,40.0584729535675,50.18907412353516Q39.98354295356751,50.13900412353516,39.900282953567505,50.104514123535154Q39.8170229535675,50.07003412353516,39.728632953567505,50.05244412353515Q39.640252953567504,50.03486412353516,39.550132953567505,50.03486412353516L39.550132953567505,50.03320412353516L37.333462953567505,50.03320412353516L37.333462953567505,50.03486412353516Q37.243343353567504,50.03486412353516,37.154954953567504,50.05244412353515Q37.0665669535675,50.07003412353516,36.983307953567504,50.104514123535154Q36.90004795356751,50.13900412353516,36.825115953567504,50.18907412353516Q36.750184953567505,50.239144123535155,36.68645995356751,50.30286412353516Q36.622735953567506,50.366584123535155,36.5726679535675,50.44152412353516Q36.522600953567505,50.516454123535155,36.4881129535675,50.59971412353516Q36.4536259535675,50.68297412353515,36.4360449535675,50.771354123535154Q36.418462953567506,50.85974412353516,36.418462953567506,50.94986412353516Q36.418462953567506,51.039984123535156,36.4360449535675,51.12837412353515Q36.4536259535675,51.21676412353516,36.4881129535675,51.30002412353515Q36.522600953567505,51.383284123535155,36.5726679535675,51.45821412353516Q36.622735953567506,51.53314412353515,36.68645995356751,51.59687412353516Q36.750184953567505,51.660594123535155,36.825115953567504,51.71066412353515Q36.90004795356751,51.76073412353516,36.983307953567504,51.79521412353516Q37.0665669535675,51.82970412353516,37.154954953567504,51.847284123535154Q37.243343353567504,51.864864123535156,37.333462953567505,51.864864123535156L37.333462953567505,51.86653412353516ZM42.88359295356751,51.86653412353516L45.1169229535675,51.86653412353516L45.1169229535675,51.864864123535156Q45.2070429535675,51.864864123535156,45.295432953567506,51.847284123535154Q45.3838229535675,51.82970412353516,45.467082953567505,51.79521412353516Q45.55034295356751,51.76073412353516,45.6252729535675,51.71066412353515Q45.700202953567505,51.660594123535155,45.763932953567505,51.59687412353516Q45.82765295356751,51.53314412353515,45.877722953567506,51.45821412353516Q45.9277829535675,51.383284123535155,45.962272953567506,51.30002412353515Q45.996762953567504,51.21676412353516,46.01434295356751,51.12837412353515Q46.0319229535675,51.039984123535156,46.0319229535675,50.94986412353516Q46.0319229535675,50.85974412353516,46.01434295356751,50.771354123535154Q45.996762953567504,50.68297412353515,45.962272953567506,50.59971412353516Q45.9277829535675,50.516454123535155,45.877722953567506,50.44152412353516Q45.82765295356751,50.366584123535155,45.763932953567505,50.30286412353516Q45.700202953567505,50.239144123535155,45.6252729535675,50.18907412353516Q45.55034295356751,50.13900412353516,45.467082953567505,50.104514123535154Q45.3838229535675,50.07003412353516,45.295432953567506,50.05244412353515Q45.2070429535675,50.03486412353516,45.1169229535675,50.03486412353516L45.1169229535675,50.03320412353516L42.88359295356751,50.03320412353516L42.88359295356751,50.03486412353516Q42.7934729535675,50.03486412353516,42.705082953567505,50.05244412353515Q42.61669295356751,50.07003412353516,42.533432953567505,50.104514123535154Q42.4501729535675,50.13900412353516,42.37524295356751,50.18907412353516Q42.300312953567506,50.239144123535155,42.2365929535675,50.30286412353516Q42.1728629535675,50.366584123535155,42.12280295356751,50.44152412353516Q42.0727329535675,50.516454123535155,42.038242953567504,50.59971412353516Q42.003752953567506,50.68297412353515,41.986172953567504,50.771354123535154Q41.96859295356751,50.85974412353516,41.96859295356751,50.94986412353516Q41.96859295356751,51.039984123535156,41.986172953567504,51.12837412353515Q42.003752953567506,51.21676412353516,42.038242953567504,51.30002412353515Q42.0727329535675,51.383284123535155,42.122792953567505,51.45821412353516Q42.1728629535675,51.53314412353515,42.2365929535675,51.59687412353516Q42.300312953567506,51.660594123535155,42.37524295356751,51.71066412353515Q42.4501729535675,51.76073412353516,42.533432953567505,51.79521412353516Q42.61669295356751,51.82970412353516,42.705082953567505,51.847284123535154Q42.7934729535675,51.864864123535156,42.88359295356751,51.864864123535156L42.88359295356751,51.86653412353516ZM48.44996295356751,51.86653412353516L50.6666629535675,51.86653412353516L50.6666629535675,51.864864123535156Q50.7567629535675,51.864864123535156,50.8451629535675,51.847284123535154Q50.9335629535675,51.82970412353516,51.016862953567504,51.79521412353516Q51.1000629535675,51.76073412353516,51.1749629535675,51.71066412353515Q51.249962953567504,51.660594123535155,51.3136629535675,51.59687412353516Q51.377362953567506,51.53314412353515,51.427462953567506,51.45821412353516Q51.47756295356751,51.383284123535155,51.51206295356751,51.30002412353515Q51.546462953567506,51.21676412353516,51.56406295356751,51.12837412353515Q51.5816629535675,51.039984123535156,51.5816629535675,50.94986412353516Q51.5816629535675,50.85974412353516,51.56406295356751,50.771354123535154Q51.546462953567506,50.68297412353515,51.51206295356751,50.59971412353516Q51.47756295356751,50.516454123535155,51.427462953567506,50.44152412353516Q51.377362953567506,50.366584123535155,51.3136629535675,50.30286412353516Q51.249962953567504,50.239144123535155,51.1749629535675,50.18907412353516Q51.1000629535675,50.13900412353516,51.016862953567504,50.104514123535154Q50.9335629535675,50.07003412353516,50.8451629535675,50.05244412353515Q50.7567629535675,50.03486412353516,50.6666629535675,50.03486412353516L50.6666629535675,50.03320412353516L48.44996295356751,50.03320412353516L48.44996295356751,50.03486412353516Q48.35986295356751,50.03486412353516,48.27146295356751,50.05244412353515Q48.18306295356751,50.07003412353516,48.09986295356751,50.104514123535154Q48.0165629535675,50.13900412353516,47.9416629535675,50.18907412353516Q47.8667629535675,50.239144123535155,47.8029629535675,50.30286412353516Q47.739262953567504,50.366584123535155,47.689162953567504,50.44152412353516Q47.63916295356751,50.516454123535155,47.604662953567505,50.59971412353516Q47.570162953567504,50.68297412353515,47.5525629535675,50.771354123535154Q47.5349629535675,50.85974412353516,47.5349629535675,50.94986412353516Q47.5349629535675,51.039984123535156,47.5525629535675,51.12837412353515Q47.570162953567504,51.21676412353516,47.604662953567505,51.30002412353515Q47.63916295356751,51.383284123535155,47.689162953567504,51.45821412353516Q47.739262953567504,51.53314412353515,47.8029629535675,51.59687412353516Q47.8667629535675,51.660594123535155,47.9416629535675,51.71066412353515Q48.0165629535675,51.76073412353516,48.09986295356751,51.79521412353516Q48.18306295356751,51.82970412353516,48.27146295356751,51.847284123535154Q48.35986295356751,51.864864123535156,48.44996295356751,51.864864123535156L48.44996295356751,51.86653412353516ZM37.333462953567505,55.74996412353516L39.550132953567505,55.74996412353516L39.550132953567505,55.748364123535154Q39.640252953567504,55.748364123535154,39.728632953567505,55.73076412353515Q39.8170229535675,55.71316412353516,39.900282953567505,55.67866412353516Q39.98354295356751,55.644164123535155,40.0584729535675,55.59416412353516Q40.133402953567504,55.54406412353516,40.197132953567504,55.48036412353515Q40.26085295356751,55.41656412353515,40.310922953567506,55.34166412353515Q40.360992953567504,55.266764123535154,40.3954829535675,55.18346412353516Q40.429962953567504,55.100264123535155,40.447542953567506,55.011864123535155Q40.465132953567505,54.923464123535155,40.465132953567505,54.833364123535155Q40.465132953567505,54.74316412353515,40.447542953567506,54.654864123535155Q40.429962953567504,54.566464123535155,40.3954829535675,54.483164123535154Q40.360992953567504,54.39986412353515,40.310922953567506,54.32496412353515Q40.26085295356751,54.250064123535154,40.197132953567504,54.18636412353516Q40.133402953567504,54.122564123535156,40.0584729535675,54.07256412353516Q39.98354295356751,54.02246412353516,39.900282953567505,53.98796412353516Q39.8170229535675,53.953464123535156,39.728632953567505,53.935864123535154Q39.640252953567504,53.918364123535156,39.550132953567505,53.918364123535156L39.550132953567505,53.916664123535156L37.333462953567505,53.916664123535156L37.333462953567505,53.918364123535156Q37.243343353567504,53.918364123535156,37.154954953567504,53.935864123535154Q37.0665669535675,53.953464123535156,36.983307953567504,53.98796412353516Q36.90004795356751,54.02246412353516,36.825115953567504,54.07256412353516Q36.750184953567505,54.122564123535156,36.68645995356751,54.18636412353516Q36.622735953567506,54.250064123535154,36.5726679535675,54.32496412353515Q36.522600953567505,54.39986412353515,36.4881129535675,54.483164123535154Q36.4536259535675,54.566464123535155,36.4360449535675,54.654864123535155Q36.418462953567506,54.74316412353515,36.418462953567506,54.833364123535155Q36.418462953567506,54.923464123535155,36.4360449535675,55.011864123535155Q36.4536259535675,55.100264123535155,36.4881129535675,55.18346412353516Q36.522600953567505,55.266764123535154,36.5726679535675,55.34166412353515Q36.622735953567506,55.41656412353515,36.68645995356751,55.48036412353515Q36.750184953567505,55.54406412353516,36.825115953567504,55.59416412353516Q36.90004795356751,55.644164123535155,36.983307953567504,55.67866412353516Q37.0665669535675,55.71316412353516,37.154954953567504,55.73076412353515Q37.243343353567504,55.748364123535154,37.333462953567505,55.748364123535154L37.333462953567505,55.74996412353516ZM42.88359295356751,55.74996412353516L45.1169229535675,55.74996412353516L45.1169229535675,55.748364123535154Q45.2070429535675,55.748364123535154,45.295432953567506,55.73076412353515Q45.3838229535675,55.71316412353516,45.467082953567505,55.67866412353516Q45.55034295356751,55.644164123535155,45.6252729535675,55.59416412353516Q45.700202953567505,55.54406412353516,45.763932953567505,55.48036412353515Q45.82765295356751,55.41656412353515,45.877722953567506,55.34166412353515Q45.9277829535675,55.266764123535154,45.962272953567506,55.18346412353516Q45.996762953567504,55.100264123535155,46.01434295356751,55.011864123535155Q46.0319229535675,54.923464123535155,46.0319229535675,54.833364123535155Q46.0319229535675,54.74316412353515,46.01434295356751,54.654864123535155Q45.996762953567504,54.566464123535155,45.962272953567506,54.483164123535154Q45.9277829535675,54.39986412353515,45.877722953567506,54.32496412353515Q45.82765295356751,54.250064123535154,45.763932953567505,54.18636412353516Q45.700202953567505,54.122564123535156,45.6252729535675,54.07256412353516Q45.55034295356751,54.02246412353516,45.467082953567505,53.98796412353516Q45.3838229535675,53.953464123535156,45.295432953567506,53.935864123535154Q45.2070429535675,53.918364123535156,45.1169229535675,53.918364123535156L45.1169229535675,53.916664123535156L42.88359295356751,53.916664123535156L42.88359295356751,53.918364123535156Q42.7934729535675,53.918364123535156,42.705082953567505,53.935864123535154Q42.61669295356751,53.953464123535156,42.533432953567505,53.98796412353516Q42.4501729535675,54.02246412353516,42.37524295356751,54.07256412353516Q42.300312953567506,54.122564123535156,42.2365929535675,54.18636412353516Q42.1728629535675,54.250064123535154,42.12280295356751,54.32496412353515Q42.0727329535675,54.39986412353515,42.038242953567504,54.483164123535154Q42.003752953567506,54.566464123535155,41.986172953567504,54.654864123535155Q41.96859295356751,54.74316412353515,41.96859295356751,54.833364123535155Q41.96859295356751,54.923464123535155,41.986172953567504,55.011864123535155Q42.003752953567506,55.100264123535155,42.038242953567504,55.18346412353516Q42.0727329535675,55.266764123535154,42.122792953567505,55.34166412353515Q42.1728629535675,55.41656412353515,42.2365929535675,55.48036412353515Q42.300312953567506,55.54406412353516,42.37524295356751,55.59416412353516Q42.4501729535675,55.644164123535155,42.533432953567505,55.67866412353516Q42.61669295356751,55.71316412353516,42.705082953567505,55.73076412353515Q42.7934729535675,55.748364123535154,42.88359295356751,55.748364123535154L42.88359295356751,55.74996412353516ZM48.44996295356751,55.74996412353516L50.6666629535675,55.74996412353516L50.6666629535675,55.748364123535154Q50.7567629535675,55.748364123535154,50.8451629535675,55.73076412353515Q50.9335629535675,55.71316412353516,51.016862953567504,55.67866412353516Q51.1000629535675,55.644164123535155,51.1749629535675,55.59416412353516Q51.249962953567504,55.54406412353516,51.3136629535675,55.48036412353515Q51.377362953567506,55.41656412353515,51.427462953567506,55.34166412353515Q51.47756295356751,55.266764123535154,51.51206295356751,55.18346412353516Q51.546462953567506,55.100264123535155,51.56406295356751,55.011864123535155Q51.5816629535675,54.923464123535155,51.5816629535675,54.833364123535155Q51.5816629535675,54.74316412353515,51.56406295356751,54.654864123535155Q51.546462953567506,54.566464123535155,51.51206295356751,54.483164123535154Q51.47756295356751,54.39986412353515,51.427462953567506,54.32496412353515Q51.377362953567506,54.250064123535154,51.3136629535675,54.18636412353516Q51.249962953567504,54.122564123535156,51.1749629535675,54.07256412353516Q51.1000629535675,54.02246412353516,51.016862953567504,53.98796412353516Q50.9335629535675,53.953464123535156,50.8451629535675,53.935864123535154Q50.7567629535675,53.918364123535156,50.6666629535675,53.918364123535156L50.6666629535675,53.916664123535156L48.44996295356751,53.916664123535156L48.44996295356751,53.918364123535156Q48.35986295356751,53.918364123535156,48.27146295356751,53.935864123535154Q48.18306295356751,53.953464123535156,48.09986295356751,53.98796412353516Q48.0165629535675,54.02246412353516,47.9416629535675,54.07256412353516Q47.8667629535675,54.122564123535156,47.8029629535675,54.18636412353516Q47.739262953567504,54.250064123535154,47.689162953567504,54.32496412353515Q47.63916295356751,54.39986412353515,47.604662953567505,54.483164123535154Q47.570162953567504,54.566464123535155,47.5525629535675,54.654864123535155Q47.5349629535675,54.74316412353515,47.5349629535675,54.833364123535155Q47.5349629535675,54.923464123535155,47.5525629535675,55.011864123535155Q47.570162953567504,55.100264123535155,47.604662953567505,55.18346412353516Q47.63916295356751,55.266764123535154,47.689162953567504,55.34166412353515Q47.739262953567504,55.41656412353515,47.8029629535675,55.48036412353515Q47.8667629535675,55.54406412353516,47.9416629535675,55.59416412353516Q48.0165629535675,55.644164123535155,48.09986295356751,55.67866412353516Q48.18306295356751,55.71316412353516,48.27146295356751,55.73076412353515Q48.35986295356751,55.748364123535154,48.44996295356751,55.748364123535154L48.44996295356751,55.74996412353516Z" fill-rule="evenodd" fill="#FFFFFF" fill-opacity="1"/></g></g></g></g></svg>