<svg xmlns="http://www.w3.org/2000/svg" xmlns:xlink="http://www.w3.org/1999/xlink" fill="none" version="1.1" width="88" height="88" viewBox="0 0 88 88"><defs><clipPath id="master_svg0_6517_01612"><rect x="24" y="24" width="40" height="40" rx="0"/></clipPath><clipPath id="master_svg1_6517_01612/6517_01316"><rect x="27.333333253860474" y="24" width="33.33333206176758" height="40" rx="0"/></clipPath></defs><g><g clip-path="url(#master_svg0_6517_01612)"><g clip-path="url(#master_svg1_6517_01612/6517_01316)"><g><path d="M51.499642247390746,37.3333L58.16624224739075,37.3333C59.546942247390746,37.3333,60.66624224739075,38.452600000000004,60.66624224739075,39.8333L60.66624224739075,59C60.66624224739075,61.7614,58.427742247390746,64,55.66624224739075,64L32.33294224739075,64C29.571522247390746,64,27.332942247390747,61.7614,27.332942247390747,59L27.332942247390747,29C27.332942247390747,26.23858,29.571522247390746,24,32.33294224739075,24L44.83294224739075,24C46.21364224739075,24,47.33294224739075,25.11929,47.33294224739075,26.5L47.33294224739075,33.166669999999996C47.33294224739075,35.4679,49.198442247390744,37.3333,51.499642247390746,37.3333ZM51.50004224739075,35.6667C50.119242247390744,35.6667,49.00004224739075,34.547399999999996,49.00004224739075,33.166669999999996L49.00004224739075,26.5C48.99164224739074,25.59716,48.69364224739075,24.72084,48.15004224739074,24L60.66664224739075,36.5167C59.94584224739075,35.973,59.06954224739074,35.675,58.16664224739075,35.6667L51.50004224739075,35.6667Z" fill-rule="evenodd" fill="#08C479" fill-opacity="1"/></g><g><path d="M50.332953810501095,42.66652168762207C50.9387538105011,43.33991168762207,51.3024538105011,44.19630168762207,51.3662538105011,45.09986168762207C51.468653810501095,46.397251687622074,51.4908538105011,47.69972168762207,51.4329538105011,48.99986168762207L51.4329538105011,52.33320168762207C51.3852538105011,53.11570168762207,51.1812538105011,53.88080168762207,50.832953810501095,54.58320168762207C50.6957538105011,54.85970168762207,50.515753810501096,55.11280168762207,50.299553810501095,55.33320168762207C49.6262538105011,55.93900168762207,48.7698538105011,56.30270168762207,47.8662538105011,56.36650168762207C46.581253810501096,56.48970168762207,45.2900038105011,56.53430168762207,43.999593810501096,56.49990168762207C42.6987838105011,56.54670168762207,41.396303810501095,56.51330168762207,40.0995938105011,56.39990168762207C39.2000238105011,56.34010168762207,38.3476438105011,55.975601687622074,37.6829338105011,55.36650168762207C37.133506810501096,54.79150168762207,36.7830038105011,54.05550168762207,36.682931810501096,53.26650168762207C36.5332788105011,52.21240168762207,36.4719544105011,51.14756168762207,36.499598260501095,50.08319168762207L36.499598260501095,48.99986168762207C36.4748997105011,47.69766168762207,36.5305609105011,46.395191687622074,36.6662658105011,45.09986168762207C36.7282708105011,44.19268168762207,37.098789810501096,43.33401168762207,37.7162638105011,42.66652168762207C38.3809838105011,42.05745168762207,39.2333538105011,41.69299068762207,40.1329338105011,41.63319068762207C41.4178938105011,41.50998048762207,42.7091938105011,41.46545178762207,43.999593810501096,41.49985718762207C45.3011038105011,41.46408328762207,46.6035538105011,41.508611887622074,47.8995538105011,41.63319068762207C48.8031538105011,41.69702268762207,49.659553810501095,42.06069268762207,50.332953810501095,42.66652168762207ZM40.2329338105011,42.68319168762207C39.5588438105011,42.71549168762207,38.9168138105011,42.98055168762207,38.4162638105011,43.43319168762207L38.4162638105011,43.41652168762207C38.006173810501096,43.90469168762207,37.7662838105011,44.51317168762207,37.7329338105011,45.14986168762207C37.651833810501095,45.908221687622074,37.6128938105011,46.67051168762207,37.616263810501096,47.43319168762207L37.7662638105011,47.43319168762207C38.1213838105011,47.40832168762207,38.4778138105011,47.40832168762207,38.832933810501096,47.43319168762207C41.805643810501095,47.44784168762207,44.4877938105011,49.22068168762207,45.6662638105011,51.949901687622074C46.555953810501094,50.61539168762207,48.045953810501096,49.80493168762207,49.6495538105011,49.78319168762207C49.8715538105011,49.76664168762207,50.0943538105011,49.76664168762207,50.316253810501095,49.78319168762207L50.4495538105011,49.78319168762207L50.4495538105011,48.99986168762207C50.4826538105011,47.74865168762207,50.4436538105011,46.49659168762207,50.332953810501095,45.24986168762207C50.3030538105011,44.57027168762207,50.0379538105011,43.92218168762207,49.582953810501095,43.41652168762207C49.0772538105011,42.96151168762207,48.4291538105011,42.69638168762207,47.7495538105011,42.66652168762207C46.5028538105011,42.55579168762207,45.2508038105011,42.51683168762207,43.999593810501096,42.54986168762207C42.7425338105011,42.52279168762207,41.4849438105011,42.56731168762207,40.2329338105011,42.68319168762207ZM48.0832538105011,45.86862168762207C48.3225538105011,46.73238168762207,47.6795538105011,47.58876168762207,46.7833538105011,47.60000168762207C46.4167738105011,47.59576168762207,46.0654338105011,47.45284168762207,45.800003810501096,47.20000168762207C45.1661038105011,46.56634168762207,45.3035038105011,45.50430168762207,46.0777838105011,45.05282168762207C46.8520538105011,44.60134168762207,47.844053810501094,45.00485168762207,48.0832538105011,45.86862168762207Z" fill-rule="evenodd" fill="#FFFFFF" fill-opacity="1"/></g></g></g></g></svg>