<svg xmlns="http://www.w3.org/2000/svg" xmlns:xlink="http://www.w3.org/1999/xlink" fill="none" version="1.1" width="88" height="88" viewBox="0 0 88 88"><defs><clipPath id="master_svg0_6517_01608"><rect x="24" y="24" width="40" height="40" rx="0"/></clipPath><clipPath id="master_svg1_6517_01608/6517_01283"><rect x="27.333333253860474" y="24" width="33.33333206176758" height="40" rx="0"/></clipPath></defs><g><g clip-path="url(#master_svg0_6517_01608)"><g clip-path="url(#master_svg1_6517_01608/6517_01283)"><g><path d="M51.499642247390746,37.3333L58.16624224739075,37.3333C59.546942247390746,37.3333,60.66624224739075,38.452600000000004,60.66624224739075,39.8333L60.66624224739075,59C60.66624224739075,61.7614,58.427742247390746,64,55.66624224739075,64L32.33294224739075,64C29.571522247390746,64,27.332942247390747,61.7614,27.332942247390747,59L27.332942247390747,29C27.332942247390747,26.23858,29.571522247390746,24,32.33294224739075,24L44.83294224739075,24C46.21364224739075,24,47.33294224739075,25.11929,47.33294224739075,26.5L47.33294224739075,33.166669999999996C47.33294224739075,35.4679,49.198442247390744,37.3333,51.499642247390746,37.3333ZM51.50004224739075,35.6667C50.119242247390744,35.6667,49.00004224739075,34.547399999999996,49.00004224739075,33.166669999999996L49.00004224739075,26.5C48.99164224739074,25.59716,48.69364224739075,24.72084,48.15004224739074,24L60.66664224739075,36.5167C59.94584224739075,35.973,59.06954224739074,35.675,58.16664224739075,35.6667L51.50004224739075,35.6667Z" fill-rule="evenodd" fill="#00213F" fill-opacity="1"/></g><g><path d="M35.66637349128723,54.53330399475098L35.66637349128723,43.28328689475098L39.31637349128723,43.28328689475098C40.21972349128723,43.244186194750974,41.12468349128723,43.30004769475098,42.01637349128723,43.44995399475098C42.68463349128723,43.60774799475098,43.27523349128723,43.99753999475098,43.68304349128723,44.54995399475098C44.139523491287235,45.19001399475098,44.36837349128723,45.964583994750974,44.33304349128723,46.749953994750975C44.344233491287234,47.326673994750976,44.21857349128723,47.89784399475098,43.96637349128723,48.41662399475098C43.73615349128723,48.859483994750974,43.405013491287235,49.24199399475098,42.999703491287235,49.533283994750974C42.64719349128723,49.78175399475098,42.25159349128723,49.96260399475098,41.83304349128723,50.06662399475098C41.04977349128723,50.183063994750974,40.258073491287234,50.23324399475098,39.46637349128723,50.216623994750975L37.93304349128723,50.216623994750975L37.93304349128723,54.466603994750976L35.66637349128723,54.53330399475098ZM37.93304349128723,45.18328399475098L37.93304349128723,48.383283994750975L39.18304349128723,48.383283994750975C39.78891349128723,48.415893994750974,40.39617349128723,48.354043994750974,40.98304349128723,48.19995399475098C41.57588349128723,47.97458399475098,41.96291349128723,47.40071399475097,41.94970349128723,46.76662399475098C41.96401349128723,46.397993994750976,41.83224349128723,46.03862399475098,41.58304349128723,45.76662399475098C41.34365349128723,45.50003399475098,41.02011349128723,45.32356399475098,40.66637349128723,45.26662399475098C40.11165349128723,45.22342399475097,39.55442349128723,45.22342399475097,38.999703491287235,45.26662399475098L37.93304349128723,45.18328399475098ZM44.716663491287235,52.216663994750974L46.88337349128723,51.88333399475098C46.95857349128723,52.25527399475098,47.15847349128723,52.59040399475098,47.44997349128723,52.83333399475097C47.79607349128723,53.073673994750976,48.212673491287234,53.19104399475098,48.63337349128723,53.16666399475098C49.07257349128723,53.19149399475098,49.50887349128723,53.080963994750974,49.88337349128723,52.849993994750974C50.05097349128723,52.72943399475098,50.15517349128723,52.53952399475098,50.16667349128723,52.33333399475097C50.16997349128723,52.18066399475097,50.116573491287234,52.032193994750976,50.016673491287236,51.91666399475098C49.80127349128723,51.771113994750976,49.55667349128723,51.67441399475098,49.29997349128723,51.63333399475098C48.142473491287234,51.45268399475098,47.018773491287234,51.09871399475098,45.96667349128723,50.58333399475097C45.34176349128723,50.18722399475098,44.973823491287234,49.48940399475098,44.99999349128723,48.74999399475098C44.99651349128723,48.06071399475098,45.30236349128723,47.406203994750975,45.83337349128723,46.966663994750974C46.58847349128723,46.428833994750974,47.50927349128723,46.17501399475098,48.43337349128723,46.24999399475098C49.29697349128723,46.18782399475098,50.160073491287235,46.378963994750976,50.91667349128723,46.79999399475098C51.48917349128723,47.19151399475098,51.88897349128723,47.78831399475098,52.033373491287236,48.466663994750974L49.999973491287236,48.849993994750974C49.931473491287235,48.55573399475098,49.76007349128723,48.295643994750975,49.516673491287236,48.11666399475098C49.198573491287235,47.93267399475098,48.83357349128723,47.84577399475098,48.46667349128723,47.86666399475098C48.04777349128723,47.838173994750974,47.62867349128723,47.918563994750976,47.249973491287236,48.099993994750974C47.09767349128723,48.191773994750974,47.00317349128723,48.355483994750976,46.999973491287236,48.533333994750976C47.00107349128723,48.694443994750976,47.08227349128723,48.844443994750975,47.21667349128723,48.933333994750974C47.85747349128723,49.22668399475098,48.53637349128723,49.428653994750974,49.23337349128723,49.533333994750976C50.09487349128723,49.67454399475098,50.91447349128723,50.00466399475098,51.63337349128723,50.49999399475098C52.112573491287236,50.91572399475098,52.36617349128723,51.53417399475097,52.31667349128723,52.16666399475098C52.289373491287236,52.88125399475098,51.95527349128723,53.549403994750975,51.39997349128723,54.000003994750976C50.60157349128723,54.58570399475098,49.62117349128723,54.869203994750976,48.63337349128723,54.80000399475098C47.70277349128723,54.85240399475098,46.77837349128723,54.619803994750974,45.98337349128723,54.133303994750975C45.33725349128723,53.674403994750975,44.88559349128723,52.990953994750974,44.716663491287235,52.216663994750974Z" fill="#59B6FF" fill-opacity="1"/></g></g></g></g></svg>