<svg xmlns="http://www.w3.org/2000/svg" xmlns:xlink="http://www.w3.org/1999/xlink" fill="none" version="1.1" width="88" height="88" viewBox="0 0 88 88"><defs><clipPath id="master_svg0_6309_02229"><rect x="24" y="24" width="40" height="40" rx="0"/></clipPath><clipPath id="master_svg1_6309_02229/6309_02231"><rect x="27.333333253860474" y="24" width="33.33333206176758" height="40" rx="0"/></clipPath></defs><g><g clip-path="url(#master_svg0_6309_02229)"><g clip-path="url(#master_svg1_6309_02229/6309_02231)"><g><path d="M51.499642247390746,37.3333L58.16624224739075,37.3333C59.546942247390746,37.3333,60.66624224739075,38.452600000000004,60.66624224739075,39.8333L60.66624224739075,59C60.66624224739075,61.7614,58.427742247390746,64,55.66624224739075,64L32.33294224739075,64C29.571522247390746,64,27.332942247390747,61.7614,27.332942247390747,59L27.332942247390747,29C27.332942247390747,26.23858,29.571522247390746,24,32.33294224739075,24L44.83294224739075,24C46.21364224739075,24,47.33294224739075,25.11929,47.33294224739075,26.5L47.33294224739075,33.166669999999996C47.33294224739075,35.4679,49.198442247390744,37.3333,51.499642247390746,37.3333ZM51.50004224739075,35.6667C50.119242247390744,35.6667,49.00004224739075,34.547399999999996,49.00004224739075,33.166669999999996L49.00004224739075,26.5C48.99164224739074,25.59716,48.69364224739075,24.72084,48.15004224739074,24L60.66664224739075,36.5167C59.94584224739075,35.973,59.06954224739074,35.675,58.16664224739075,35.6667L51.50004224739075,35.6667Z" fill-rule="evenodd" fill="#0F87FF" fill-opacity="1"/></g><g><path d="M38.26031226158142,49.90996681213379L40.66364226158142,53.33996681213379L38.645312261581424,53.328296812133786L36.568642261581424,50.25996681213379Q36.54531226158142,50.25996681213379,36.527812261581424,50.25996681213379Q36.51031226158142,50.25996681213379,36.49864226158142,50.25996681213379L35.26198226158142,50.25996681213379L35.26198226158142,53.33996681213379L33.57031226158142,53.33996681213379L33.57031226158142,44.79996681213379L36.52198226158142,44.79996681213379Q37.52531226158142,44.79996681213379,38.28364226158142,45.13829981213379Q39.041982261581424,45.47663381213379,39.45031226158142,46.10079681213379Q39.85864226158142,46.724966812133786,39.85864226158142,47.529966812133786Q39.85864226158142,48.34663681213379,39.43864226158142,48.96496681213379Q39.01864226158142,49.58329681213379,38.26031226158142,49.90996681213379ZM36.32364226158142,46.23496681213379L35.26198226158142,46.23496681213379L35.26198226158142,48.82496681213379L36.32364226158142,48.82496681213379Q37.09364226158142,48.82496681213379,37.57781226158142,48.50996681213379Q38.06198226158142,48.19496681213379,38.06198226158142,47.529966812133786Q38.06198226158142,46.85329681213379,37.58364226158142,46.544136812133786Q37.10531226158142,46.23496681213379,36.32364226158142,46.23496681213379ZM40.74531226158142,46.30496681213379L40.74531226158142,44.79996681213379L47.628612261581424,44.79996681213379L47.628612261581424,46.30496681213379L45.03861226158142,46.30496681213379L45.03861226158142,53.33996681213379L43.33531226158142,53.33996681213379L43.33531226158142,46.30496681213379L40.74531226158142,46.30496681213379ZM48.86531226158142,53.33996681213379L48.86531226158142,44.79996681213379L54.43031226158142,44.79996681213379L54.43031226158142,46.28163681213379L50.55701226158142,46.28163681213379L50.55701226158142,48.46329681213379L54.02201226158142,48.46329681213379L54.02201226158142,49.93329681213379L50.55701226158142,49.93329681213379L50.55701226158142,53.33996681213379L48.86531226158142,53.33996681213379Z" fill="#FFFFFF" fill-opacity="1"/></g></g></g></g></svg>