<svg xmlns="http://www.w3.org/2000/svg" xmlns:xlink="http://www.w3.org/1999/xlink" fill="none" version="1.1" width="88" height="88" viewBox="0 0 88 88"><defs><clipPath id="master_svg0_6517_01354"><rect x="24" y="24" width="40" height="40" rx="0"/></clipPath><clipPath id="master_svg1_6517_01354/6517_01163"><rect x="27.333333253860474" y="24" width="33.33333206176758" height="40" rx="0"/></clipPath></defs><g><g clip-path="url(#master_svg0_6517_01354)"><g clip-path="url(#master_svg1_6517_01354/6517_01163)"><g><path d="M51.499642247390746,37.3333L58.16624224739075,37.3333C59.546942247390746,37.3333,60.66624224739075,38.452600000000004,60.66624224739075,39.8333L60.66624224739075,59C60.66624224739075,61.7614,58.427742247390746,64,55.66624224739075,64L32.33294224739075,64C29.571522247390746,64,27.332942247390747,61.7614,27.332942247390747,59L27.332942247390747,29C27.332942247390747,26.23858,29.571522247390746,24,32.33294224739075,24L44.83294224739075,24C46.21364224739075,24,47.33294224739075,25.11929,47.33294224739075,26.5L47.33294224739075,33.166669999999996C47.33294224739075,35.4679,49.198442247390744,37.3333,51.499642247390746,37.3333ZM51.50004224739075,35.6667C50.119242247390744,35.6667,49.00004224739075,34.547399999999996,49.00004224739075,33.166669999999996L49.00004224739075,26.5C48.99164224739074,25.59716,48.69364224739075,24.72084,48.15004224739074,24L60.66664224739075,36.5167C59.94584224739075,35.973,59.06954224739074,35.675,58.16664224739075,35.6667L51.50004224739075,35.6667Z" fill-rule="evenodd" fill="#BFBFBF" fill-opacity="1"/></g><g><path d="M45.16666966621399,52.53336698913574L42.66666966621399,52.53336698913574L42.66666966621399,51.883366989135745C42.64162966621399,51.19992698913574,42.77869966621399,50.52028698913574,43.06666966621399,49.899996989135744C43.49407966621399,49.20219698913574,44.06158966621399,48.600636989135744,44.73332966621399,48.13333698913574C45.25066966621399,47.75190698913574,45.73059966621399,47.32219698913574,46.16666966621399,46.84999698913574C46.78855966621399,46.11399698913574,46.65859966621399,45.00553698913574,45.88332966621399,44.43333698913574C45.41715966621399,44.04448698913574,44.823239666213986,43.842556989135744,44.21666966621399,43.866666989135744C43.536459666213986,43.80448698913574,42.85930966621399,44.01421698913574,42.33332966621399,44.44999698913574C41.82186966621399,44.934116989135745,41.48244966621399,45.57199698913574,41.36666966621399,46.26666698913574L38.84999966621399,45.94999698913574C38.91649296621399,44.799486989135744,39.45281766621399,43.72683698913574,40.33332966621399,42.98333698913574C41.361359666213986,42.13524498913574,42.66889966621399,41.70137718913574,43.99999966621399,41.76666577913574C45.35997966621399,41.696344989135746,46.69724966621399,42.13615698913574,47.74999966621399,42.999996989135745C48.62459966621399,43.703206989135744,49.13829966621399,44.76115698913574,49.149999666213986,45.88332698913574C49.14179966621399,46.477046989135744,48.96239966621399,47.055776989135744,48.63332966621399,47.54999698913574C48.01054966621399,48.38055698913574,47.27579966621399,49.12091698913574,46.44999966621399,49.749996989135745C46.018619666213986,50.067176989135746,45.65105966621399,50.46300698913574,45.36666966621399,50.91666698913574C45.18933966621399,51.43602698913574,45.12125966621399,51.98646698913574,45.16666966621399,52.53336698913574ZM42.66666966621399,56.233366989135746L42.66666966621399,53.483366989135746L45.41666966621399,53.483366989135746L45.41666966621399,56.233366989135746L42.66666966621399,56.233366989135746Z" fill="#FFFFFF" fill-opacity="1"/></g></g></g></g></svg>