<svg xmlns="http://www.w3.org/2000/svg" xmlns:xlink="http://www.w3.org/1999/xlink" fill="none" version="1.1" width="88" height="88" viewBox="0 0 88 88"><defs><clipPath id="master_svg0_6517_01611"><rect x="24" y="24" width="40" height="40" rx="0"/></clipPath><clipPath id="master_svg1_6517_01611/6517_01311"><rect x="27.333333253860474" y="24" width="33.33333206176758" height="40" rx="0"/></clipPath></defs><g><g clip-path="url(#master_svg0_6517_01611)"><g clip-path="url(#master_svg1_6517_01611/6517_01311)"><g><path d="M51.499642247390746,37.3333L58.16624224739075,37.3333C59.546942247390746,37.3333,60.66624224739075,38.452600000000004,60.66624224739075,39.8333L60.66624224739075,59C60.66624224739075,61.7614,58.427742247390746,64,55.66624224739075,64L32.33294224739075,64C29.571522247390746,64,27.332942247390747,61.7614,27.332942247390747,59L27.332942247390747,29C27.332942247390747,26.23858,29.571522247390746,24,32.33294224739075,24L44.83294224739075,24C46.21364224739075,24,47.33294224739075,25.11929,47.33294224739075,26.5L47.33294224739075,33.166669999999996C47.33294224739075,35.4679,49.198442247390744,37.3333,51.499642247390746,37.3333ZM51.50004224739075,35.6667C50.119242247390744,35.6667,49.00004224739075,34.547399999999996,49.00004224739075,33.166669999999996L49.00004224739075,26.5C48.99164224739074,25.59716,48.69364224739075,24.72084,48.15004224739074,24L60.66664224739075,36.5167C59.94584224739075,35.973,59.06954224739074,35.675,58.16664224739075,35.6667L51.50004224739075,35.6667Z" fill-rule="evenodd" fill="#FD4C4C" fill-opacity="1"/></g><g><path d="M47.04999852180481,47.56666603088379L47.04999852180481,50.41666603088379L52.33332852180481,53.583336030883785L52.33332852180481,44.41666603088379L47.04999852180481,47.56666603088379Z" fill="#FFFFFF" fill-opacity="0.5"/></g><g><path d="M47.68336626930237,43.49999936415527L36.63333326930237,43.49999936415527C36.09945826930237,43.49999936415527,35.666667064031365,43.93279113415527,35.66666626930237,44.466666134155275L35.66666626930237,53.53335313415528C35.666667064031365,54.06725313415527,36.09945826930237,54.49995313415528,36.63333326930237,54.49995313415528L47.699966269302365,54.49995313415528C48.23386626930237,54.49995313415528,48.66666626930237,54.06725313415527,48.66666626930237,53.53335313415528L48.66666626930237,44.466666134155275C48.66676626930237,43.92621413415527,48.22366626930237,43.49068196415527,47.68336626930237,43.49999936415527ZM39.88333626930237,52.41666313415527L39.88333626930237,45.66666313415527L45.44999626930237,49.00000313415527L39.88333626930237,52.41666313415527Z" fill="#FFFFFF" fill-opacity="1"/></g></g></g></g></svg>