<svg xmlns="http://www.w3.org/2000/svg" xmlns:xlink="http://www.w3.org/1999/xlink" fill="none" version="1.1" width="88" height="88" viewBox="0 0 88 88"><defs><clipPath id="master_svg0_6517_01577"><rect x="24" y="24" width="40" height="40" rx="0"/></clipPath><clipPath id="master_svg1_6517_01577/6517_01219"><rect x="27.333333253860474" y="24" width="33.33333206176758" height="40" rx="0"/></clipPath></defs><g><g clip-path="url(#master_svg0_6517_01577)"><g clip-path="url(#master_svg1_6517_01577/6517_01219)"><g><path d="M51.499642247390746,37.3333L58.16624224739075,37.3333C59.546942247390746,37.3333,60.66624224739075,38.452600000000004,60.66624224739075,39.8333L60.66624224739075,59C60.66624224739075,61.7614,58.427742247390746,64,55.66624224739075,64L32.33294224739075,64C29.571522247390746,64,27.332942247390747,61.7614,27.332942247390747,59L27.332942247390747,29C27.332942247390747,26.23858,29.571522247390746,24,32.33294224739075,24L44.83294224739075,24C46.21364224739075,24,47.33294224739075,25.11929,47.33294224739075,26.5L47.33294224739075,33.166669999999996C47.33294224739075,35.4679,49.198442247390744,37.3333,51.499642247390746,37.3333ZM51.50004224739075,35.6667C50.119242247390744,35.6667,49.00004224739075,34.547399999999996,49.00004224739075,33.166669999999996L49.00004224739075,26.5C48.99164224739074,25.59716,48.69364224739075,24.72084,48.15004224739074,24L60.66664224739075,36.5167C59.94584224739075,35.973,59.06954224739074,35.675,58.16664224739075,35.6667L51.50004224739075,35.6667Z" fill-rule="evenodd" fill="#FF9800" fill-opacity="1"/></g><g><path d="M50.083330288772586,41.683332444541016L48.41666628877258,41.683332444541016C48.32039428877258,41.684294064541014,48.22924028877258,41.726832754541014,48.166666588772586,41.799998154541015C48.13737924877258,41.88075915454102,48.13737924877258,41.96923715454101,48.166666588772586,42.049998154541015C48.281390288772585,42.25989815454101,48.344250288772585,42.49419415454101,48.34999928877258,42.733327154541016L48.34999928877258,49.51666715454102L48.533332288772584,50.566667154541015C48.533332288772584,50.66666715454102,48.649998288772586,50.716667154541014,48.69999928877258,50.78332715454101C48.74372728877258,50.77203715454102,48.789605288772584,50.77203715454102,48.83333228877258,50.78332715454101L49.13333328877258,50.933337154541015C50.02308028877258,51.18811715454102,50.64413028877258,51.991477154541016,50.666670288772586,52.91667715454102L50.666670288772586,55.266677154541014C50.65707028877258,55.37727715454102,50.739350288772584,55.47447715454101,50.850000288772584,55.48337715454102Q50.850000288772584,55.48337715454102,50.96667028877258,55.48337715454102C51.02522028877258,55.508377154541016,51.091450288772585,55.508377154541016,51.15000028877258,55.48337715454102C51.605240288772585,55.22447715454101,51.885550288772585,54.740377154541015,51.883330288772584,54.21667715454102L51.883330288772584,43.24999715454101C51.83025028877258,42.31471615454102,51.017000288772586,41.60688595454101,50.083330288772586,41.683332444541016Z" fill="#FFFFFF" fill-opacity="0.5"/></g><g><path d="M41.91666546003723,42.41666603088379C41.96098146003723,42.29063603088379,42.08328646003723,42.20910603088379,42.21666646003723,42.216666030883786L42.81666646003723,42.216666030883786C42.95004646003723,42.20910603088379,43.07234646003723,42.29063603088379,43.11666646003723,42.41666603088379L43.48333646003723,43.61666603088379L43.96666646003723,42.73333603088379L43.24999646003723,41.26666703088379L43.24999646003723,41.16666603088379L41.583332460037234,41.16666603088379L41.583332460037234,41.26666703088379L40.96666646003723,42.73333603088379L41.44999946003723,43.73333603088379L41.91666546003723,42.41666603088379Z" fill="#FFFFFF" fill-opacity="1"/></g><g><path d="M42.449998874282834,42.73333168029785L41.66666687428284,45.08333168029785C41.559326074282836,45.29674168029785,41.606992324282835,45.555511680297855,41.783332874282834,45.716661680297854C42.22737687428284,45.92217168029785,42.739293874282836,45.92217168029785,43.18333387428284,45.716661680297854C43.35492387428284,45.55451168029785,43.42510387428284,45.31207168029785,43.366663874282835,45.08333168029785L42.583331874282834,42.73333168029785L42.449998874282834,42.73333168029785Z" fill="#FFFFFF" fill-opacity="1"/></g><g><path d="M48.86666626930237,51.4500458984375L48.449966269302365,51.3000458984375C47.97706626930237,51.1907458984375,47.63166626930237,50.7843658984375,47.59996626930237,50.2999958984375L47.59996626930237,42.7333358984375C47.547366269302366,41.7909018984375,46.72326626930237,41.0802446984375,45.78333626930237,41.1666666684375L43.849996269302366,41.1666666684375L44.63333626930237,42.6333358984375C44.708766269302366,42.6786658984375,44.708766269302366,42.7880058984375,44.63333626930237,42.8333358984375L43.849996269302366,44.1499958984375Q43.849996269302366,44.2499958984375,43.73333626930237,44.2499958984375L43.966666269302365,44.9333358984375C44.14195626930237,45.3401258984375,44.01833626930237,45.8140058984375,43.66666626930237,46.0833358984375C43.32576626930237,46.3048358984375,42.92233626930237,46.4100758984375,42.51666626930237,46.3833358984375C42.111006269302365,46.4100758984375,41.707576269302365,46.3048358984375,41.36666626930237,46.0833358984375C41.014996269302365,45.8140058984375,40.89137626930237,45.3401258984375,41.06666626930237,44.9333358984375L41.300006269302365,44.2999958984375C41.18099626930237,44.3042858984375,41.06797626930237,44.2477758984375,40.99999626930237,44.1499958984375L40.39999626930237,42.8333358984375L40.39999626930237,42.6333358984375L40.99999626930237,41.1666666684375L37.98333626930237,41.1666666684375C37.04339726930237,41.0802446984375,36.21933686930237,41.7909018984375,36.16666626930237,42.7333358984375L36.16666626930237,55.2666458984375C36.219336069302365,56.2091458984375,37.04339726930237,56.9197458984375,37.98333626930237,56.8333458984375L48.26666626930237,56.8333458984375C49.20656626930237,56.9197458984375,50.03066626930237,56.2091458984375,50.08336626930237,55.2666458984375L50.08336626930237,52.9166458984375C50.05586626930237,52.2089458984375,49.55706626930237,51.6076458984375,48.86666626930237,51.4500458984375ZM41.91666626930237,54.7833458984375L41.29999626930237,54.7833458984375C41.15243626930237,54.7837458984375,41.03259626930237,54.6642458984375,41.03259626930237,54.5166458984375C41.03259626930237,54.3691458984375,41.15243626930237,54.2495458984375,41.29999626930237,54.2500458984375L41.91666626930237,54.2500458984375C42.06422626930237,54.2495458984375,42.18406626930237,54.3691458984375,42.18406626930237,54.5166458984375C42.18406626930237,54.6642458984375,42.06422626930237,54.7837458984375,41.91666626930237,54.7833458984375ZM41.91666626930237,53.7333458984375L41.29999626930237,53.7333458984375C41.13132626930237,53.776545898437504,40.96718626930237,53.649145898437496,40.96718626930237,53.4750458984375C40.96718626930237,53.3008458984375,41.13132626930237,53.1734458984375,41.29999626930237,53.2166458984375L41.91666626930237,53.2166458984375C42.099996269302366,53.2166458984375,42.216666269302365,53.3166458984375,42.216666269302365,53.4666458984375C42.19935626930237,53.6145458984375,42.06427626930237,53.7196458984375,41.91666626930237,53.7000458984375L41.91666626930237,53.7333458984375ZM41.91666626930237,52.6833458984375L41.29999626930237,52.6833458984375C41.13132626930237,52.7265458984375,40.96718626930237,52.5991458984375,40.96718626930237,52.4250458984375C40.96718626930237,52.250845898437504,41.13132626930237,52.1234458984375,41.29999626930237,52.1666458984375L41.91666626930237,52.1666458984375C42.07674626930237,52.1464458984375,42.21793626930237,52.2719458984375,42.216666269302365,52.4333458984375C42.216666269302365,52.5500458984375,42.099996269302366,52.6500458984375,41.91666626930237,52.6500458984375L41.91666626930237,52.6833458984375ZM41.91666626930237,51.6500458984375L41.29999626930237,51.6500458984375C41.15272626930237,51.6500458984375,41.03333626930237,51.5306458984375,41.03333626930237,51.3833458984375C41.03333626930237,51.236045898437496,41.15272626930237,51.1166658984375,41.29999626930237,51.1166658984375L41.91666626930237,51.1166658984375C42.06394626930237,51.1166658984375,42.183336269302366,51.236045898437496,42.183336269302366,51.3833458984375C42.183336269302366,51.5306458984375,42.06394626930237,51.6500458984375,41.91666626930237,51.6500458984375ZM41.91666626930237,50.5999958984375L41.29999626930237,50.5999958984375C41.13132626930237,50.6431858984375,40.96718626930237,50.5157758984375,40.96718626930237,50.3416658984375C40.96718626930237,50.1675558984375,41.13132626930237,50.0401458984375,41.29999626930237,50.0833358984375L41.91666626930237,50.0833358984375C42.099996269302366,50.0833358984375,42.216666269302365,50.1833358984375,42.216666269302365,50.3333358984375C42.19935626930237,50.4812258984375,42.06427626930237,50.5862858984375,41.91666626930237,50.5666658984375L41.91666626930237,50.5999958984375ZM41.91666626930237,49.5499958984375L41.29999626930237,49.5499958984375C41.13132626930237,49.5931858984375,40.96718626930237,49.4657758984375,40.96718626930237,49.2916658984375C40.96718626930237,49.1175558984375,41.13132626930237,48.9901458984375,41.29999626930237,49.0333358984375L41.91666626930237,49.0333358984375C42.07674626930237,49.0131558984375,42.21792626930237,49.1386558984375,42.216666269302365,49.2999958984375C42.216666269302365,49.4166658984375,42.099996269302366,49.5166658984375,41.91666626930237,49.5166658984375L41.91666626930237,49.5499958984375ZM41.91666626930237,48.5166658984375L41.29999626930237,48.5166658984375C41.15272626930237,48.5166658984375,41.03333626930237,48.3972758984375,41.03333626930237,48.2499958984375C41.03333626930237,48.1027258984375,41.15272626930237,47.9833358984375,41.29999626930237,47.9833358984375L41.91666626930237,47.9833358984375C42.06394626930237,47.9833358984375,42.183336269302366,48.1027258984375,42.183336269302366,48.2499958984375C42.183336269302366,48.3972758984375,42.06394626930237,48.5166658984375,41.91666626930237,48.5166658984375ZM41.91666626930237,47.4666658984375L41.29999626930237,47.4666658984375C41.13132626930237,47.5098558984375,40.96718626930237,47.3824458984375,40.96718626930237,47.2083358984375C40.96718626930237,47.0342158984375,41.13132626930237,46.9068158984375,41.29999626930237,46.9499958984375L41.91666626930237,46.9499958984375C42.099996269302366,46.9499958984375,42.216666269302365,47.0499958984375,42.216666269302365,47.1999958984375C42.19935626930237,47.3478958984375,42.06427626930237,47.4529558984375,41.91666626930237,47.4333358984375L41.91666626930237,47.4666658984375ZM43.73333626930237,54.2500458984375L43.11666626930237,54.2500458984375C42.933336269302366,54.2500458984375,42.81666626930237,54.1500458984375,42.81666626930237,54.0000458984375C42.81539626930237,53.8386458984375,42.95658626930237,53.7131458984375,43.11666626930237,53.7333458984375L43.73333626930237,53.7333458984375C43.90200626930237,53.6901458984375,44.066146269302365,53.8175458984375,44.066146269302365,53.9916458984375C44.066146269302365,54.1657458984375,43.90200626930237,54.2931458984375,43.73333626930237,54.2500458984375ZM43.73333626930237,53.2166458984375L43.11666626930237,53.2166458984375C42.96938626930237,53.2166458984375,42.849996269302366,53.0972458984375,42.849996269302366,52.9500458984375C42.849996269302366,52.8027458984375,42.96938626930237,52.6833458984375,43.11666626930237,52.6833458984375L43.73333626930237,52.6833458984375C43.88060626930237,52.6833458984375,43.99999626930237,52.8027458984375,43.99999626930237,52.9500458984375C43.99999626930237,53.0972458984375,43.88060626930237,53.2166458984375,43.73333626930237,53.2166458984375ZM43.73333626930237,52.1666458984375L43.11666626930237,52.1666458984375C42.95658626930237,52.1868458984375,42.81539626930237,52.0613458984375,42.81666626930237,51.9000458984375C42.81666626930237,51.7500458984375,42.933336269302366,51.6500458984375,43.11666626930237,51.6500458984375L43.73333626930237,51.6500458984375C43.90200626930237,51.6068458984375,44.066146269302365,51.7342458984375,44.066146269302365,51.9083458984375C44.066146269302365,52.0824458984375,43.90200626930237,52.2098458984375,43.73333626930237,52.1666458984375ZM43.73333626930237,51.1166658984375L43.11666626930237,51.1166658984375C42.933336269302366,51.1166658984375,42.81666626930237,51.0166658984375,42.81666626930237,50.8666658984375C42.81539626930237,50.7053258984375,42.95658626930237,50.5798258984375,43.11666626930237,50.6000058984375L43.73333626930237,50.6000058984375C43.90200626930237,50.5568058984375,44.066146269302365,50.6842158984375,44.066146269302365,50.8583358984375C44.066146269302365,51.0324458984375,43.90200626930237,51.159845898437496,43.73333626930237,51.1166658984375ZM43.73333626930237,50.0833358984375L43.11666626930237,50.0833358984375C42.969106269302365,50.083735898437496,42.84926626930237,49.9642258984375,42.84926626930237,49.8166658984375C42.84926626930237,49.6691058984375,42.969106269302365,49.5495958984375,43.11666626930237,49.5500058984375L43.73333626930237,49.5500058984375C43.88089626930237,49.5495958984375,44.000736269302365,49.6691058984375,44.000736269302365,49.8166658984375C44.000736269302365,49.9642258984375,43.88089626930237,50.083735898437496,43.73333626930237,50.0833358984375ZM43.73333626930237,49.0333358984375L43.11666626930237,49.0333358984375C42.95658626930237,49.0535058984375,42.81539626930237,48.9280058984375,42.81666626930237,48.7666658984375C42.81666626930237,48.6166658984375,42.933336269302366,48.5166658984375,43.11666626930237,48.5166658984375L43.73333626930237,48.5166658984375C43.90200626930237,48.4734758984375,44.066146269302365,48.6008858984375,44.066146269302365,48.7749958984375C44.066146269302365,48.9491158984375,43.90200626930237,49.0765258984375,43.73333626930237,49.0333358984375ZM43.73333626930237,47.9833358984375L43.11666626930237,47.9833358984375C42.933336269302366,47.9833358984375,42.81666626930237,47.8833358984375,42.81666626930237,47.7333358984375C42.81539626930237,47.5719958984375,42.95658626930237,47.4464958984375,43.11666626930237,47.4666658984375L43.73333626930237,47.4666658984375C43.90200626930237,47.4234858984375,44.066146269302365,47.5508858984375,44.066146269302365,47.7249958984375C44.066146269302365,47.8991158984375,43.90200626930237,48.0265158984375,43.73333626930237,47.9833358984375Z" fill="#FFFFFF" fill-opacity="1"/></g></g></g></g></svg>